<svg id="网络故障" xmlns="http://www.w3.org/2000/svg" width="162" height="158" viewBox="0 0 162 158">
  <metadata><?xpacket begin="﻿" id="W5M0MpCehiHzreSzNTczkc9d"?>
<x:xmpmeta xmlns:x="adobe:ns:meta/" x:xmptk="Adobe XMP Core 5.6-c142 79.160924, 2017/07/13-01:06:39        ">
   <rdf:RDF xmlns:rdf="http://www.w3.org/1999/02/22-rdf-syntax-ns#">
      <rdf:Description rdf:about=""/>
   </rdf:RDF>
</x:xmpmeta>
                                                                                                    
                                                                                                    
                                                                                                    
                                                                                                    
                                                                                                    
                                                                                                    
                                                                                                    
                                                                                                    
                                                                                                    
                                                                                                    
                                                                                                    
                                                                                                    
                                                                                                    
                                                                                                    
                                                                                                    
                                                                                                    
                                                                                                    
                                                                                                    
                                                                                                    
                                                                                                    
                           
<?xpacket end="w"?></metadata>
<defs>
    <style>
      .cls-1 {
        fill: #d3dceb;
      }

      .cls-2 {
        fill: #a2b5d4;
      }

      .cls-2, .cls-3 {
        fill-rule: evenodd;
      }

      .cls-3 {
        fill: #dbe3f0;
      }
    </style>
  </defs>
  <g id="组_8_拷贝" data-name="组 8 拷贝">
    <ellipse id="椭圆_15" data-name="椭圆 15" class="cls-1" cx="81.5" cy="152.5" rx="63.5" ry="5.5"/>
    <path id="椭圆_14" data-name="椭圆 14" class="cls-2" d="M148.631,50.134A90.928,90.928,0,0,0,13.5,49.909L-0.009,37.536A109.975,109.975,0,0,1,162,37.646ZM80.944,34.348a77.839,77.839,0,0,1,57.542,25.264L125.227,72A59.866,59.866,0,0,0,37.1,71.527L23.723,59.277A77.829,77.829,0,0,1,80.944,34.348Zm0,32.348A45.248,45.248,0,0,1,114.75,81.785L101.563,94.1a27.25,27.25,0,0,0-40.6-.718L47.661,81.2A45.25,45.25,0,0,1,80.944,66.7Z"/>
    <path id="圆角矩形_2_拷贝" data-name="圆角矩形 2 拷贝" class="cls-2" d="M85.786,115.153l7.2,7.107a3.319,3.319,0,0,1,0,4.738,3.425,3.425,0,0,1-4.8,0l-7.2-7.107L73.784,127a3.425,3.425,0,0,1-4.8,0,3.32,3.32,0,0,1,0-4.738l7.2-7.107-7.2-7.107a3.321,3.321,0,0,1,0-4.739,3.427,3.427,0,0,1,4.8,0l7.2,7.108,7.2-7.108a3.427,3.427,0,0,1,4.8,0,3.321,3.321,0,0,1,0,4.739Z"/>
  </g>
  <g id="组_8" data-name="组 8">
    <path id="椭圆_14-2" data-name="椭圆 14" class="cls-3" d="M148.631,48.134A90.967,90.967,0,0,0,26.974,35.684C26.3,36.18,21,33,21,33l2.205,5.626S16.5,44.583,13.5,47.909L-0.009,35.536A109.975,109.975,0,0,1,162,35.646ZM80.944,32.348A77.824,77.824,0,0,1,123.2,44.729C123.682,45.039,118,56,118,56l11-7a98.746,98.746,0,0,1,9.485,8.612L125.227,70A59.866,59.866,0,0,0,37.1,69.527L23.723,57.277A77.829,77.829,0,0,1,80.944,32.348Zm0,32.348A45.248,45.248,0,0,1,114.75,79.785L101.563,92.1a27.25,27.25,0,0,0-40.6-.718L47.661,79.2A45.25,45.25,0,0,1,80.944,64.7ZM124,7l-4,4,3,2-4,7,8-6-2-3,3-3ZM72.044,65.521l1.132,2.541-0.987,1.2,0.6,3.919-3.359-4.975,1.447-1.025-0.849-1.906ZM97.36,91.131l0.275-5.65,3.5,0.878,0.275-5.65,3.154,7.941-3.566.534-0.206,4.238Z"/>
    <path id="圆角矩形_2" data-name="圆角矩形 2" class="cls-3" d="M85.786,112.82l7.2,7.107a3.319,3.319,0,0,1,0,4.738,3.425,3.425,0,0,1-4.8,0l-7.2-7.107-7.2,7.107a3.425,3.425,0,0,1-4.8,0,3.32,3.32,0,0,1,0-4.738l7.2-7.107-7.2-7.108a3.32,3.32,0,0,1,0-4.738,3.427,3.427,0,0,1,4.8,0l7.2,7.107,7.2-7.107a3.426,3.426,0,0,1,4.8,0,3.319,3.319,0,0,1,0,4.738Z"/>
  </g>
</svg>
