<svg id="加载失败" xmlns="http://www.w3.org/2000/svg" xmlns:xlink="http://www.w3.org/1999/xlink" width="299" height="356" viewBox="0 0 299 356">
  <metadata><?xpacket begin="﻿" id="W5M0MpCehiHzreSzNTczkc9d"?>
<x:xmpmeta xmlns:x="adobe:ns:meta/" x:xmptk="Adobe XMP Core 5.6-c142 79.160924, 2017/07/13-01:06:39        ">
   <rdf:RDF xmlns:rdf="http://www.w3.org/1999/02/22-rdf-syntax-ns#">
      <rdf:Description rdf:about=""/>
   </rdf:RDF>
</x:xmpmeta>
                                                                                                    
                                                                                                    
                                                                                                    
                                                                                                    
                                                                                                    
                                                                                                    
                                                                                                    
                                                                                                    
                                                                                                    
                                                                                                    
                                                                                                    
                                                                                                    
                                                                                                    
                                                                                                    
                                                                                                    
                                                                                                    
                                                                                                    
                                                                                                    
                                                                                                    
                                                                                                    
                           
<?xpacket end="w"?></metadata>
<defs>
    <style>
      .cls-1 {
        fill: #d3dceb;
      }

      .cls-2 {
        fill: #dbe3f0;
      }

      .cls-3 {
        fill: #fff;
        filter: url(#filter);
      }

      .cls-4, .cls-5 {
        fill: #b5c4dc;
      }

      .cls-4 {
        fill-rule: evenodd;
      }

      .cls-6 {
        opacity: 0.4;
      }
    </style>
    <filter id="filter" x="45" y="20" width="213" height="273" filterUnits="userSpaceOnUse">
      <feOffset result="offset" dx="1.5" dy="2.598" in="SourceAlpha"/>
      <feGaussianBlur result="blur"/>
      <feFlood result="flood" flood-color="#788fb5" flood-opacity="0.26"/>
      <feComposite result="composite" operator="in" in2="blur"/>
      <feBlend result="blend" in="SourceGraphic"/>
    </filter>
  </defs>
  <ellipse id="椭圆_15_拷贝_4" data-name="椭圆 15 拷贝 4" class="cls-1" cx="149.5" cy="344.5" rx="149.5" ry="11.5"/>
  <g id="组_4" data-name="组 4">
    <rect id="底" class="cls-2" x="25" width="251" height="310" rx="12" ry="12"/>
    <rect id="白底" class="cls-3" x="45" y="20" width="211" height="270" rx="12" ry="12"/>
    <g id="表情">
      <path id="圆角矩形_2" data-name="圆角矩形 2" class="cls-4" d="M280.508,89.981l10.075,9.969a4.665,4.665,0,0,1,0,6.646,4.786,4.786,0,0,1-6.717,0l-10.074-9.969L263.718,106.6a4.786,4.786,0,0,1-6.717,0,4.665,4.665,0,0,1,0-6.646l10.075-9.969L257,80.012a4.666,4.666,0,0,1,0-6.646,4.786,4.786,0,0,1,6.717,0l10.074,9.969,10.074-9.969a4.786,4.786,0,0,1,6.717,0,4.666,4.666,0,0,1,0,6.646ZM198.964,106.6a4.785,4.785,0,0,1-6.716,0l-10.074-9.969L172.1,106.6a4.785,4.785,0,0,1-6.716,0,4.664,4.664,0,0,1,0-6.646l10.074-9.969-10.074-9.969a4.664,4.664,0,0,1,0-6.646,4.784,4.784,0,0,1,6.716,0l10.075,9.969,10.074-9.969a4.784,4.784,0,0,1,6.716,0,4.664,4.664,0,0,1,0,6.646L188.89,89.981l10.074,9.969A4.664,4.664,0,0,1,198.964,106.6Z" transform="translate(-78 -18)"/>
      <rect id="圆角矩形_1_拷贝" data-name="圆角矩形 1 拷贝" class="cls-5" x="115" y="122" width="72" height="12" rx="6" ry="6"/>
    </g>
    <g id="乱码" class="cls-6">
      <path id="圆角矩形_6" data-name="圆角矩形 6" class="cls-4" d="M277,278H267a2,2,0,0,1-2-2V257a2,2,0,0,1,2-2h10a2,2,0,0,1,2,2v19A2,2,0,0,1,277,278Zm-28-57H239a2,2,0,0,1-2-2V200a2,2,0,0,1,2-2h10a2,2,0,0,1,2,2v19A2,2,0,0,1,249,221Zm-33,57H206a2,2,0,0,1-2-2V257a2,2,0,0,1,2-2h10a2,2,0,0,1,2,2v19A2,2,0,0,1,216,278Zm-31-57H175a2,2,0,0,1-2-2V200a2,2,0,0,1,2-2h10a2,2,0,0,1,2,2v19A2,2,0,0,1,185,221Zm-25,57H150a2,2,0,0,1-2-2V257a2,2,0,0,1,2-2h10a2,2,0,0,1,2,2v19A2,2,0,0,1,160,278Zm-1-57H149a2,2,0,0,1-2-2V200a2,2,0,0,1,2-2h10a2,2,0,0,1,2,2v19A2,2,0,0,1,159,221Zm-8-19h6v15h-6V202Zm26,0h6v15h-6V202Zm64,0h6v15h-6V202Zm28,57h6v15h-6V259Zm-61,0h6v15h-6V259Zm-56,0h6v15h-6V259Z" transform="translate(-78 -18)"/>
      <path id="_" data-name="&amp;    ^ $ " class="cls-4" d="M221.759,217.285a19.033,19.033,0,0,1-2.017-1.6,8.815,8.815,0,0,0,1-1.735,25.979,25.979,0,0,0,1.1-3.279l-4.217-.963a11.456,11.456,0,0,1-1.029,2.773l-3.387-4.466a11.9,11.9,0,0,0,3.553-3,4.992,4.992,0,0,0,.88-2.806,5.111,5.111,0,0,0-1.776-3.934,7.074,7.074,0,0,0-4.931-1.61,7.457,7.457,0,0,0-5.039,1.535,4.782,4.782,0,0,0-1.768,3.744,5.938,5.938,0,0,0,.631,2.532,13.225,13.225,0,0,0,1.876,2.814,11.4,11.4,0,0,0-4.167,3.245,6.856,6.856,0,0,0-1.394,4.209,6.6,6.6,0,0,0,1.776,4.548q2.29,2.558,6.84,2.557a11.116,11.116,0,0,0,3.951-.631,10.008,10.008,0,0,0,3.138-1.959,16.43,16.43,0,0,0,3.984,2.789l2.822-3.6A15.292,15.292,0,0,1,221.759,217.285Zm-12.027-13.406a3.516,3.516,0,0,1-1.063-2.092,1.672,1.672,0,0,1,.631-1.286,2.973,2.973,0,0,1,3.561.074,2.02,2.02,0,0,1,.672,1.528,2.9,2.9,0,0,1-1.394,2.141l-1.262.963Zm4.067,12.252a9.216,9.216,0,0,1-2.208,1.428,5.319,5.319,0,0,1-2.108.432,3.65,3.65,0,0,1-2.648-.955,3.274,3.274,0,0,1-.988-2.465,4.051,4.051,0,0,1,.8-2.341,6.3,6.3,0,0,1,2.407-1.959Zm54.769-6.209,3.27-8.118,3.287,8.118h4.715l-6.076-13.264h-3.7l-6.243,13.264h4.749Zm29.135,6.491a5.513,5.513,0,0,1-1-2.291l-4.333.465a8.817,8.817,0,0,0,2.291,5.064,7.681,7.681,0,0,0,4.665,2.141v3.022h2.407v-3.1a7.986,7.986,0,0,0,5.056-2.523,7.374,7.374,0,0,0,1.817-5.064,6.612,6.612,0,0,0-1.444-4.407q-1.445-1.719-5.429-2.8v-6.491a3.382,3.382,0,0,1,1.993,2.656l4.2-.548a6.952,6.952,0,0,0-1.992-3.976,7.128,7.128,0,0,0-4.2-1.8v-1.643H299.33v1.643a6.924,6.924,0,0,0-4.574,2.133,6.474,6.474,0,0,0-1.718,4.574,7.06,7.06,0,0,0,1.519,4.574,9.158,9.158,0,0,0,4.773,2.814v6.956A4.551,4.551,0,0,1,297.7,216.413Zm1.627-10.293a3.675,3.675,0,0,1-1.61-1.22,2.784,2.784,0,0,1-.531-1.635,2.915,2.915,0,0,1,.581-1.76,3.118,3.118,0,0,1,1.56-1.129v5.744Zm2.407,5.446a4.188,4.188,0,0,1,2.15,1.237,2.941,2.941,0,0,1,.656,1.917,3.251,3.251,0,0,1-.78,2.167,3.383,3.383,0,0,1-2.026,1.153v-6.474Z" transform="translate(-78 -18)"/>
      <path id="_..._" data-name="#    $   ...  " class="cls-4" d="M177.817,278.825h3.751l1.312-6.474h3.686l-1.279,6.474h3.7l1.312-6.474h4.781V268.7h-4.034l1-4.9h3.038v-3.669h-2.291l1.328-6.474h-3.851l-1.279,6.474H185.32l1.312-6.474h-3.719l-1.311,6.474H176.87V263.8h3.985l-1,4.9H176.87v3.652h2.258ZM188.259,263.8l-0.963,4.9H183.61l0.98-4.9h3.669Zm51.5,9.612a5.513,5.513,0,0,1-1-2.291l-4.333.465a8.817,8.817,0,0,0,2.291,5.064,7.681,7.681,0,0,0,4.665,2.141v3.022h2.407v-3.105a7.986,7.986,0,0,0,5.055-2.523,7.375,7.375,0,0,0,1.818-5.064,6.612,6.612,0,0,0-1.444-4.407q-1.444-1.719-5.429-2.8v-6.491a3.379,3.379,0,0,1,1.992,2.656l4.2-.548a6.947,6.947,0,0,0-1.993-3.976,7.122,7.122,0,0,0-4.2-1.8v-1.643h-2.407v1.643a6.924,6.924,0,0,0-4.574,2.133,6.474,6.474,0,0,0-1.718,4.574,7.055,7.055,0,0,0,1.519,4.574,9.158,9.158,0,0,0,4.773,2.814v6.956A4.543,4.543,0,0,1,239.757,273.413Zm1.627-10.293a3.669,3.669,0,0,1-1.61-1.22,2.778,2.778,0,0,1-.532-1.635,2.922,2.922,0,0,1,.581-1.76,3.125,3.125,0,0,1,1.561-1.129v5.744Zm2.407,5.446a4.192,4.192,0,0,1,2.15,1.237,2.941,2.941,0,0,1,.656,1.917,3.251,3.251,0,0,1-.78,2.167,3.386,3.386,0,0,1-2.026,1.153v-6.474Zm43.828,9.844v-4.665h-4.665v4.665h4.665Zm9.447,0v-4.665H292.4v4.665h4.665Zm9.446,0v-4.665h-4.665v4.665h4.665Z" transform="translate(-78 -18)"/>
    </g>
  </g>
</svg>
