<svg xmlns="http://www.w3.org/2000/svg" viewBox="0 0 335 371.28"><defs><style>.cls-1{fill:#a7b2cf;}.cls-2{fill:#dbe3f0;}.cls-3{fill:#fff;}.cls-4{fill:#bcc3d5;}.cls-5{opacity:0.53;}.cls-6{isolation:isolate;font-size:88.19px;fill:#b8c2d2;font-family:SourceHanSansCN-Bold-GBpc-EUC-H, Source Han Sans CN;font-weight:700;}.cls-7{fill:#d3dceb;}.cls-8{fill:#b2bacc;}</style></defs><title>资源 1</title><g id="图层_2" data-name="图层 2"><g id="图层_1-2" data-name="图层 1"><g id="矩形_3" data-name="矩形 3"><polygon class="cls-1" points="282 133 53 133 3 188 332 188 282 133"/></g><g id="矩形_2" data-name="矩形 2"><rect class="cls-2" x="47" width="241" height="276" rx="12" ry="12"/></g><g id="矩形_4" data-name="矩形 4"><rect class="cls-3" x="68" y="22" width="200" height="243"/></g><path class="cls-4" d="M261.3,196.31l-17.12,22.26a21.3,21.3,0,0,1-16.88,8.31H107.7a21.3,21.3,0,0,1-16.88-8.31L73.7,196.31A21.3,21.3,0,0,0,56.82,188H3V299.16A20.44,20.44,0,0,0,23.44,319.6H311.56A20.44,20.44,0,0,0,332,299.16h0V188H278.18A21.3,21.3,0,0,0,261.3,196.31Z"/><path class="cls-2" d="M261.3,198.2l-17.12,22.27a21.3,21.3,0,0,1-16.88,8.31H107.7a21.3,21.3,0,0,1-16.88-8.31L73.7,198.2a21.33,21.33,0,0,0-16.88-8.3H3V301.06A20.44,20.44,0,0,0,23.44,321.5H311.56A20.44,20.44,0,0,0,332,301.06h0V189.9H278.18A21.33,21.33,0,0,0,261.3,198.2Z"/><g id="空" class="cls-5"><text class="cls-6" transform="translate(122.71 160.38)">空</text></g><ellipse class="cls-7" cx="167.5" cy="354.67" rx="167.5" ry="16.61"/><path class="cls-8" d="M29,216.33h0a3,3,0,0,1,3,3v77.83a3,3,0,0,1-3,3h0a3,3,0,0,1-3-3V219.33A3,3,0,0,1,29,216.33Z"/><path class="cls-8" d="M306,216.33h0a3,3,0,0,1,3,3v77.83a3,3,0,0,1-3,3h0a3,3,0,0,1-3-3V219.33A3,3,0,0,1,306,216.33Z"/></g></g></svg>