<svg xmlns="http://www.w3.org/2000/svg" viewBox="0 0 329 370.33"><defs><style>.cls-1{fill:#a7b2cf;fill-rule:evenodd;}.cls-2{fill:#dbe3f0;}.cls-3{fill:#fff;}.cls-4{fill:#bcc3d5;}.cls-5{opacity:0.53;}.cls-6{font-size:88.19px;fill:#b8c2d2;font-family:SourceHanSansCN-Bold-GBpc-EUC-H, Source Han Sans CN;font-weight:700;}.cls-7{fill:#d3dceb;}.cls-8{fill:#b2bacc;}</style></defs><title>资源 3</title><g id="图层_2" data-name="图层 2"><g id="暂无数据"><g id="无数据"><g id="矩形_3" data-name="矩形 3"><polygon class="cls-1" points="279 133 50 133 0 188 329 188 279 133"/></g><g id="矩形_2" data-name="矩形 2"><rect class="cls-2" x="44" width="241" height="276" rx="12" ry="12"/></g><g id="矩形_4" data-name="矩形 4"><rect class="cls-3" x="65" y="22" width="200" height="243"/></g><path class="cls-4" d="M258.3,196.31l-17.12,22.26a21.3,21.3,0,0,1-16.88,8.31H104.7a21.3,21.3,0,0,1-16.88-8.31L70.7,196.31A21.3,21.3,0,0,0,53.82,188H0V299.16A20.44,20.44,0,0,0,20.44,319.6H308.56A20.44,20.44,0,0,0,329,299.16V188H275.18A21.3,21.3,0,0,0,258.3,196.31Z"/><path class="cls-2" d="M258.3,198.2l-17.12,22.27a21.3,21.3,0,0,1-16.88,8.31H104.7a21.3,21.3,0,0,1-16.88-8.31L70.7,198.2a21.32,21.32,0,0,0-16.88-8.3H0V301.06A20.44,20.44,0,0,0,20.44,321.5H308.56A20.44,20.44,0,0,0,329,301.06V189.9H275.18A21.32,21.32,0,0,0,258.3,198.2Z"/><g id="空" class="cls-5"><text class="cls-6" transform="translate(119.71 160.38)">空</text></g><ellipse class="cls-7" cx="164.5" cy="354.67" rx="158" ry="15.67"/></g><rect class="cls-8" x="23" y="216.33" width="6" height="83.83" rx="3" ry="3"/><rect class="cls-8" x="300" y="216.33" width="6" height="83.83" rx="3" ry="3"/></g></g></svg>