<svg id="未购买" xmlns="http://www.w3.org/2000/svg" width="146" height="164.781" viewBox="0 0 146 164.781">
  <metadata><?xpacket begin="﻿" id="W5M0MpCehiHzreSzNTczkc9d"?>
<x:xmpmeta xmlns:x="adobe:ns:meta/" x:xmptk="Adobe XMP Core 5.6-c142 79.160924, 2017/07/13-01:06:39        ">
   <rdf:RDF xmlns:rdf="http://www.w3.org/1999/02/22-rdf-syntax-ns#">
      <rdf:Description rdf:about=""/>
   </rdf:RDF>
</x:xmpmeta>
                                                                                                    
                                                                                                    
                                                                                                    
                                                                                                    
                                                                                                    
                                                                                                    
                                                                                                    
                                                                                                    
                                                                                                    
                                                                                                    
                                                                                                    
                                                                                                    
                                                                                                    
                                                                                                    
                                                                                                    
                                                                                                    
                                                                                                    
                                                                                                    
                                                                                                    
                                                                                                    
                           
<?xpacket end="w"?></metadata>
<defs>
    <style>
      .cls-1 {
        fill: #d3dceb;
      }

      .cls-2 {
        fill: #becbe0;
      }

      .cls-10, .cls-3 {
        fill: #dbe3f0;
      }

      .cls-3, .cls-4, .cls-5, .cls-7 {
        fill-rule: evenodd;
      }

      .cls-11, .cls-4 {
        fill: #fff;
      }

      .cls-5, .cls-9 {
        fill: #a2b5d4;
      }

      .cls-6, .cls-7 {
        fill: none;
        stroke: #a2b5d4;
        stroke-width: 3px;
      }

      .cls-8 {
        fill: #8da0bf;
        opacity: 0.6;
      }
    </style>
  </defs>
  <ellipse id="椭圆_15_拷贝_6" data-name="椭圆 15 拷贝 6" class="cls-1" cx="69.5" cy="159.781" rx="69.5" ry="5"/>
  <rect id="圆角矩形_13" data-name="圆角矩形 13" class="cls-2" x="2" y="50.781" width="126" height="78" rx="10" ry="10"/>
  <g id="组_9" data-name="组 9">
    <path id="圆角矩形_14" data-name="圆角矩形 14" class="cls-3" d="M203.763,735.921l62.494,33.7a6,6,0,0,1,2.433,8.128l-39.867,73.937a6,6,0,0,1-8.129,2.433L158.2,820.42a6,6,0,0,1-2.433-8.128l39.867-73.937A6,6,0,0,1,203.763,735.921Z" transform="translate(-143 -735.219)"/>
    <path id="矩形_7" data-name="矩形 7" class="cls-4" d="M201.657,746.147l58.093,31.324-38.443,71.3-58.093-31.324Z" transform="translate(-143 -735.219)"/>
    <g id="组_8" data-name="组 8">
      <path id="_" data-name="￥" class="cls-5" d="M225.338,795.394l2.655,1.432L230,793.1l4.486,2.419,0.765-1.419-4.486-2.419,0.852-1.579,4.485,2.419,0.765-1.419-3.844-2.073,10.072-5.587-3.067-1.654-4.784,3.121c-1.6,1.114-2.377,1.614-3.777,2.513l-0.115-.062c-0.018-1.664-.026-2.525.024-4.536l-0.067-5.738L228.2,775.4l0.867,11.486-3.845-2.073-0.765,1.419,4.509,2.431-0.852,1.579-4.508-2.431-0.765,1.419,4.508,2.431Z" transform="translate(-143 -735.219)"/>
      <circle id="椭圆_17" data-name="椭圆 17" class="cls-6" cx="88.5" cy="51.437" r="16.5"/>
      <path id="形状_10" data-name="形状 10" class="cls-7" d="M226.838,771.086l8.923,29.806" transform="translate(-143 -735.219)"/>
    </g>
    <path id="圆角矩形_15" data-name="圆角矩形 15" class="cls-3" d="M202.6,759.152l10.562,5.695a1,1,0,0,1,.406,1.355l-0.949,1.76a1,1,0,0,1-1.355.406l-10.563-5.7a1,1,0,0,1-.405-1.354l0.949-1.761A1,1,0,0,1,202.6,759.152Zm-4.746,8.8,10.562,5.7A1,1,0,0,1,208.82,775l-0.949,1.76a1,1,0,0,1-1.355.406l-10.563-5.7a1,1,0,0,1-.405-1.354l0.949-1.761A1,1,0,0,1,197.852,767.954Zm-4.746,8.8,10.562,5.7a1,1,0,0,1,.406,1.355l-0.95,1.76a1,1,0,0,1-1.354.406l-10.563-5.7a1,1,0,0,1-.405-1.354l0.949-1.761A1,1,0,0,1,193.106,776.756Z" transform="translate(-143 -735.219)"/>
  </g>
  <rect id="圆角矩形_16" data-name="圆角矩形 16" class="cls-8" x="2" y="60.781" width="126" height="11" rx="5.5" ry="5.5"/>
  <rect id="圆角矩形_13-2" data-name="圆角矩形 13" class="cls-9" x="104" y="86.781" width="42" height="30" rx="6" ry="6"/>
  <rect id="圆角矩形_13-3" data-name="圆角矩形 13" class="cls-10" x="2" y="63.781" width="136" height="85" rx="10" ry="10"/>
  <rect id="圆角矩形_13-4" data-name="圆角矩形 13" class="cls-9" x="104" y="91.781" width="42" height="30" rx="6" ry="6"/>
  <path id="矩形_9" data-name="矩形 9" class="cls-5" d="M145,811h2v1h-2v-1Zm3,0h2v1h-2v-1Zm3,0h2v1h-2v-1Zm3,0h2v1h-2v-1Zm3,0h2v1h-2v-1Zm3,0h2v1h-2v-1Zm3,0h2v1h-2v-1Zm3,0h2v1h-2v-1Zm3,0h2v1h-2v-1Zm3,0h2v1h-2v-1Zm3,0h2v1h-2v-1Zm3,0h2v1h-2v-1Zm3,0h2v1h-2v-1Zm3,0h2v1h-2v-1Zm3,0h2v1h-2v-1Zm3,0h2v1h-2v-1Zm3,0h2v1h-2v-1Zm3,0h2v1h-2v-1Zm3,0h2v1h-2v-1Zm3,0h2v1h-2v-1Zm3,0h2v1h-2v-1Zm3,0h2v1h-2v-1Zm3,0h2v1h-2v-1Zm3,0h2v1h-2v-1Zm3,0h2v1h-2v-1Zm3,0h2v1h-2v-1Zm3,0h2v1h-2v-1Zm3,0h2v1h-2v-1Zm3,0h2v1h-2v-1Zm3,0h2v1h-2v-1Zm3,0h2v1h-2v-1Zm3,0h2v1h-2v-1Zm3,0h2v1h-2v-1Zm3,0h2v1h-2v-1Zm3,0h2v1h-2v-1Zm3,0h2v1h-2v-1Zm3,0h2v1h-2v-1Zm3,0h2v1h-2v-1Zm3,0h2v1h-2v-1Zm3,0h2v1h-2v-1Zm3,0h2v1h-2v-1Zm3,0h2v1h-2v-1Zm3,0h2v1h-2v-1Zm3,0h2v1h-2v-1Zm3,0h2v1h-2v-1Zm3,0h1v1h-1v-1Z" transform="translate(-143 -735.219)"/>
  <path id="矩形_9_拷贝" data-name="矩形 9 拷贝" class="cls-5" d="M145,871h2v1h-2v-1Zm3,0h2v1h-2v-1Zm3,0h2v1h-2v-1Zm3,0h2v1h-2v-1Zm3,0h2v1h-2v-1Zm3,0h2v1h-2v-1Zm3,0h2v1h-2v-1Zm3,0h2v1h-2v-1Zm3,0h2v1h-2v-1Zm3,0h2v1h-2v-1Zm3,0h2v1h-2v-1Zm3,0h2v1h-2v-1Zm3,0h2v1h-2v-1Zm3,0h2v1h-2v-1Zm3,0h2v1h-2v-1Zm3,0h2v1h-2v-1Zm3,0h2v1h-2v-1Zm3,0h2v1h-2v-1Zm3,0h2v1h-2v-1Zm3,0h2v1h-2v-1Zm3,0h2v1h-2v-1Zm3,0h2v1h-2v-1Zm3,0h2v1h-2v-1Zm3,0h2v1h-2v-1Zm3,0h2v1h-2v-1Zm3,0h2v1h-2v-1Zm3,0h2v1h-2v-1Zm3,0h2v1h-2v-1Zm3,0h2v1h-2v-1Zm3,0h2v1h-2v-1Zm3,0h2v1h-2v-1Zm3,0h2v1h-2v-1Zm3,0h2v1h-2v-1Zm3,0h2v1h-2v-1Zm3,0h2v1h-2v-1Zm3,0h2v1h-2v-1Zm3,0h2v1h-2v-1Zm3,0h2v1h-2v-1Zm3,0h2v1h-2v-1Zm3,0h2v1h-2v-1Zm3,0h2v1h-2v-1Zm3,0h2v1h-2v-1Zm3,0h2v1h-2v-1Zm3,0h2v1h-2v-1Zm3,0h2v1h-2v-1Zm3,0h1v1h-1v-1Z" transform="translate(-143 -735.219)"/>
  <circle id="椭圆_16" data-name="椭圆 16" class="cls-11" cx="118" cy="107.781" r="5"/>
</svg>
