<svg id="_404" data-name="404" xmlns="http://www.w3.org/2000/svg" xmlns:xlink="http://www.w3.org/1999/xlink" width="270" height="362" viewBox="0 0 270 362">
  <metadata><?xpacket begin="﻿" id="W5M0MpCehiHzreSzNTczkc9d"?>
<x:xmpmeta xmlns:x="adobe:ns:meta/" x:xmptk="Adobe XMP Core 5.6-c142 79.160924, 2017/07/13-01:06:39        ">
   <rdf:RDF xmlns:rdf="http://www.w3.org/1999/02/22-rdf-syntax-ns#">
      <rdf:Description rdf:about=""/>
   </rdf:RDF>
</x:xmpmeta>
                                                                                                    
                                                                                                    
                                                                                                    
                                                                                                    
                                                                                                    
                                                                                                    
                                                                                                    
                                                                                                    
                                                                                                    
                                                                                                    
                                                                                                    
                                                                                                    
                                                                                                    
                                                                                                    
                                                                                                    
                                                                                                    
                                                                                                    
                                                                                                    
                                                                                                    
                                                                                                    
                           
<?xpacket end="w"?></metadata>
<defs>
    <style>
      .cls-1 {
        fill: #7f92b1;
      }

      .cls-2 {
        fill: #a2b5d4;
      }

      .cls-3 {
        fill: #e9eff7;
      }

      .cls-4 {
        fill: #c1cddf;
      }

      .cls-4, .cls-5, .cls-8, .cls-9 {
        fill-rule: evenodd;
      }

      .cls-5 {
        fill: #fff;
        filter: url(#filter);
      }

      .cls-6 {
        fill: #889cbc;
        opacity: 0.5;
      }

      .cls-7, .cls-9 {
        fill: #dbe3f0;
      }

      .cls-8 {
        fill: #a4b3cc;
      }

      .cls-10 {
        fill: #c8d4e8;
      }

      .cls-11 {
        fill: #bccae0;
        stroke: #fff;
        stroke-width: 2px;
        opacity: 0.8;
      }

      .cls-12 {
        fill: #d3dceb;
      }
    </style>
    <filter id="filter" x="34" y="73" width="203" height="215" filterUnits="userSpaceOnUse">
      <feOffset result="offset" dy="2" in="SourceAlpha"/>
      <feGaussianBlur result="blur" stdDeviation="3"/>
      <feFlood result="flood" flood-color="#788fb5" flood-opacity="0.45"/>
      <feComposite result="composite" operator="in" in2="blur"/>
      <feBlend result="blend" in="SourceGraphic"/>
    </filter>
  </defs>
  <rect id="底_拷贝" data-name="底 拷贝" class="cls-1" y="3" width="270" height="186" rx="12" ry="12"/>
  <rect id="底_拷贝-2" data-name="底 拷贝" class="cls-2" width="270" height="186" rx="12" ry="12"/>
  <path id="矩形_4" data-name="矩形 4" class="cls-3" d="M22,78H248a0,0,0,0,1,0,0V300a6,6,0,0,1-6,6H28a6,6,0,0,1-6-6V78A0,0,0,0,1,22,78Z"/>
  <path id="形状_7" data-name="形状 7" class="cls-4" d="M43,236s0.7,42.916,2,44c1.5,1.249,47.3-13.555,66-16,10.829-1.415,5-58,5-58l-45,3Z"/>
  <path id="矩形_4-2" data-name="矩形 4" class="cls-5" d="M224,216c-0.376,2.827-1,12-1,12l-3-5-2,3-12-1-3,50-2,1-7-3-5,4h0l-4-3-4,2h-8l-6-63c0.443,5.223-3,64-3,64h-6l-1-2-2-1-4,3h0l-7-4h-2l-9,4h-5l-5-3-4,3H107l-5-67c-0.185,7.04-.424,19.046-7,24-9.85,7.421-46.5,1.333-53,.181V79H228V222Z"/>
  <rect id="矩形_6" data-name="矩形 6" class="cls-6" y="91" width="270" height="9"/>
  <path id="底_拷贝-3" data-name="底 拷贝" class="cls-7" d="M12,0H258a12,12,0,0,1,12,12V94a0,0,0,0,1,0,0H0a0,0,0,0,1,0,0V12A12,12,0,0,1,12,0Z"/>
  <g id="文字">
    <path id="圆角矩形_9" data-name="圆角矩形 9" class="cls-8" d="M135,121a18,18,0,0,1,18,18v40a18,18,0,0,1-36,0V139A18,18,0,0,1,135,121Zm0,12a6,6,0,0,1,6,6v40a6,6,0,0,1-12,0V139A6,6,0,0,1,135,133Z"/>
    <path id="形状_8" data-name="形状 8" class="cls-8" d="M184,123h10l-17,50h10V154h10v19h7v10h-7v12H187V183H166v-8ZM84,123H94L77,173H87V154H97v19h7v10H97v12H87V183H66v-8Z"/>
  </g>
  <path id="形状_6" data-name="形状 6" class="cls-9" d="M27,225H76s8.389,14.078,21,7c2.754-1.546-10.957,16-32,16C43.748,248,33.385,243.238,27,225Z"/>
  <rect id="矩形_5" data-name="矩形 5" class="cls-10" y="92" width="270" height="2"/>
  <g id="按钮">
    <circle id="椭圆_12" data-name="椭圆 12" class="cls-11" cx="218" cy="70" r="8"/>
    <circle id="椭圆_12_拷贝" data-name="椭圆 12 拷贝" class="cls-11" cx="246" cy="70" r="8"/>
  </g>
  <ellipse id="椭圆_15_拷贝_3" data-name="椭圆 15 拷贝 3" class="cls-12" cx="135" cy="351" rx="132" ry="11"/>
</svg>
