<svg id="暂无通知" xmlns="http://www.w3.org/2000/svg" width="149" height="154" viewBox="0 0 149 154">
  <metadata><?xpacket begin="﻿" id="W5M0MpCehiHzreSzNTczkc9d"?>
<x:xmpmeta xmlns:x="adobe:ns:meta/" x:xmptk="Adobe XMP Core 5.6-c142 79.160924, 2017/07/13-01:06:39        ">
   <rdf:RDF xmlns:rdf="http://www.w3.org/1999/02/22-rdf-syntax-ns#">
      <rdf:Description rdf:about=""/>
   </rdf:RDF>
</x:xmpmeta>
                                                                                                    
                                                                                                    
                                                                                                    
                                                                                                    
                                                                                                    
                                                                                                    
                                                                                                    
                                                                                                    
                                                                                                    
                                                                                                    
                                                                                                    
                                                                                                    
                                                                                                    
                                                                                                    
                                                                                                    
                                                                                                    
                                                                                                    
                                                                                                    
                                                                                                    
                                                                                                    
                           
<?xpacket end="w"?></metadata>
<defs>
    <style>
      .cls-1 {
        fill: #d3dceb;
      }

      .cls-2 {
        fill: #cdd7e7;
      }

      .cls-2, .cls-3, .cls-4, .cls-5 {
        fill-rule: evenodd;
      }

      .cls-3 {
        fill: #a2b5d4;
      }

      .cls-4 {
        fill: #dbe3f0;
      }

      .cls-5 {
        fill: #b5c4dc;
      }
    </style>
  </defs>
  <ellipse id="椭圆_15" data-name="椭圆 15" class="cls-1" cx="74.5" cy="147.5" rx="73.5" ry="6.5"/>
  <path id="多边形_1" data-name="多边形 1" class="cls-2" d="M33,20a8,8,0,0,0-8,8V54a8.062,8.062,0,0,0,.059.935C22.7,56.672,20.247,58.51,18,60c-1.556,1.032-3,2-3,2s-2,.394-2-1V52l-8,.024a4.977,4.977,0,0,1-5-4.955V4.955A4.977,4.977,0,0,1,5,0H70a4.978,4.978,0,0,1,5,4.955V20H33Z"/>
  <path id="多边形_1_拷贝" data-name="多边形 1 拷贝" class="cls-3" d="M141,110H129v12c0,3.4-.077,4-2,4s-4.51-2.333-7-4c-5.745-3.846-12.127-8.247-17.617-12H37a8,8,0,0,1-8-8V34a8,8,0,0,1,8-8H141a8,8,0,0,1,8,8v68A8,8,0,0,1,141,110Z"/>
  <path id="多边形_1-2" data-name="多边形 1" class="cls-4" d="M141,108H129v12c0,3.4-.077,4-2,4s-4.51-2.333-7-4c-5.745-3.846-12.127-8.247-17.617-12H37a8,8,0,0,1-8-8V32a8,8,0,0,1,8-8H141a8,8,0,0,1,8,8v68A8,8,0,0,1,141,108Z"/>
  <path id="椭圆_17" data-name="椭圆 17" class="cls-5" d="M59,59a9,9,0,1,1-9,9A9,9,0,0,1,59,59Zm30,0a9,9,0,1,1-9,9A9,9,0,0,1,89,59Zm30,0a9,9,0,1,1-9,9A9,9,0,0,1,119,59Z"/>
</svg>
