<svg id="加载失败" xmlns="http://www.w3.org/2000/svg" width="293" height="363" viewBox="0 0 293 363">
  <metadata><?xpacket begin="﻿" id="W5M0MpCehiHzreSzNTczkc9d"?>
<x:xmpmeta xmlns:x="adobe:ns:meta/" x:xmptk="Adobe XMP Core 5.6-c142 79.160924, 2017/07/13-01:06:39        ">
   <rdf:RDF xmlns:rdf="http://www.w3.org/1999/02/22-rdf-syntax-ns#">
      <rdf:Description rdf:about=""/>
   </rdf:RDF>
</x:xmpmeta>
                                                                                                    
                                                                                                    
                                                                                                    
                                                                                                    
                                                                                                    
                                                                                                    
                                                                                                    
                                                                                                    
                                                                                                    
                                                                                                    
                                                                                                    
                                                                                                    
                                                                                                    
                                                                                                    
                                                                                                    
                                                                                                    
                                                                                                    
                                                                                                    
                                                                                                    
                                                                                                    
                           
<?xpacket end="w"?></metadata>
<defs>
    <style>
      .cls-1 {
        fill: #d3dceb;
      }

      .cls-2 {
        fill: #dbe3f0;
      }

      .cls-3 {
        fill: #c1cde1;
      }

      .cls-4 {
        fill: #fff;
      }

      .cls-5, .cls-6 {
        fill: #b5c4dc;
      }

      .cls-5 {
        fill-rule: evenodd;
      }
    </style>
  </defs>
  <g id="组_4" data-name="组 4">
    <ellipse id="椭圆_15" data-name="椭圆 15" class="cls-1" cx="146.5" cy="350.5" rx="146.5" ry="12.5"/>
    <rect id="底" class="cls-2" x="21" width="251" height="310" rx="12" ry="12"/>
    <rect id="白底_拷贝" data-name="白底 拷贝" class="cls-3" x="43" y="23" width="211" height="270" rx="12" ry="12"/>
    <rect id="白底" class="cls-4" x="41" y="20" width="211" height="270" rx="12" ry="12"/>
    <path id="椭圆_10" data-name="椭圆 10" class="cls-5" d="M172,108a55,55,0,1,1-55,55A55,55,0,0,1,172,108Zm0.5,9A46.5,46.5,0,1,1,126,163.5,46.5,46.5,0,0,1,172.5,117Z" transform="translate(-25 -6)"/>
    <rect id="圆角矩形_1_拷贝" data-name="圆角矩形 1 拷贝" class="cls-6" x="141" y="120" width="12" height="50" rx="6" ry="6"/>
    <circle id="椭圆_11" data-name="椭圆 11" class="cls-6" cx="147" cy="186" r="7"/>
  </g>
  <path id="圆角矩形_9" data-name="圆角矩形 9" class="cls-5" d="M124,6h96a2,2,0,0,1,2,2V34a6,6,0,0,1-6,6H128a6,6,0,0,1-6-6V8A2,2,0,0,1,124,6Zm5,5h86a2,2,0,0,1,2,2V29a6,6,0,0,1-6,6H133a6,6,0,0,1-6-6V13A2,2,0,0,1,129,11Z" transform="translate(-25 -6)"/>
</svg>
