<svg xmlns="http://www.w3.org/2000/svg" width="54" height="54" viewBox="0 0 54 54">
  <metadata><?xpacket begin="﻿" id="W5M0MpCehiHzreSzNTczkc9d"?>
<x:xmpmeta xmlns:x="adobe:ns:meta/" x:xmptk="Adobe XMP Core 5.6-c142 79.160924, 2017/07/13-01:06:39        ">
   <rdf:RDF xmlns:rdf="http://www.w3.org/1999/02/22-rdf-syntax-ns#">
      <rdf:Description rdf:about=""/>
   </rdf:RDF>
</x:xmpmeta>
                                                                                                    
                                                                                                    
                                                                                                    
                                                                                                    
                                                                                                    
                                                                                                    
                                                                                                    
                                                                                                    
                                                                                                    
                                                                                                    
                                                                                                    
                                                                                                    
                                                                                                    
                                                                                                    
                                                                                                    
                                                                                                    
                                                                                                    
                                                                                                    
                                                                                                    
                                                                                                    
                           
<?xpacket end="w"?></metadata>
<defs>
    <style>
      .cls-1 {
        fill: #555;
        fill-rule: evenodd;
      }
    </style>
  </defs>
  <path id="AI" class="cls-1" d="M881,750h-1v14a1,1,0,0,1-1,1H867.723A1.994,1.994,0,0,1,866,766H855a2,2,0,0,1-2-2v-2a2,2,0,0,1,2-2h11a1.994,1.994,0,0,1,1.723,1H876V750h-3v5a2,2,0,0,1-2,2H839a2,2,0,0,1-2-2v-5h-8a1,1,0,0,1-1-1V730a1,1,0,0,1,1-1h8v-8a2,2,0,0,1,2-2h14v-3h-1a1,1,0,0,1-1-1v-2a1,1,0,0,1,1-1h6a1,1,0,0,1,1,1v2a1,1,0,0,1-1,1h-1v3h14a2,2,0,0,1,2,2v8h8a1,1,0,0,1,1,1v19A1,1,0,0,1,881,750Zm-49-17v13h5V733h-5Zm37-8a2,2,0,0,0-2-2H843a2,2,0,0,0-2,2v13h28V725Zm0,13H841v13a2,2,0,0,0,2,2h24a2,2,0,0,0,2-2V738Zm9-5h-5v13h5V733Zm-22,14h-2a1,1,0,0,1-1-1v-7a1,1,0,0,1,1-1h2a1,1,0,0,1,1,1v7A1,1,0,0,1,856,747Zm-10-16h18a1,1,0,0,1,1,1v2a1,1,0,0,1-1,1H846a1,1,0,0,1-1-1v-2A1,1,0,0,1,846,731Z" transform="translate(-828 -712)"/>
</svg>
