<svg xmlns="http://www.w3.org/2000/svg" width="48.031" height="55" viewBox="0 0 48.031 55">
  <metadata><?xpacket begin="﻿" id="W5M0MpCehiHzreSzNTczkc9d"?>
<x:xmpmeta xmlns:x="adobe:ns:meta/" x:xmptk="Adobe XMP Core 5.6-c142 79.160924, 2017/07/13-01:06:39        ">
   <rdf:RDF xmlns:rdf="http://www.w3.org/1999/02/22-rdf-syntax-ns#">
      <rdf:Description rdf:about=""/>
   </rdf:RDF>
</x:xmpmeta>
                                                                                                    
                                                                                                    
                                                                                                    
                                                                                                    
                                                                                                    
                                                                                                    
                                                                                                    
                                                                                                    
                                                                                                    
                                                                                                    
                                                                                                    
                                                                                                    
                                                                                                    
                                                                                                    
                                                                                                    
                                                                                                    
                                                                                                    
                                                                                                    
                                                                                                    
                                                                                                    
                           
<?xpacket end="w"?></metadata>
<defs>
    <style>
      .cls-1 {
        fill: #555;
        fill-rule: evenodd;
      }
    </style>
  </defs>
  <path id="AI_model" data-name="AI model" class="cls-1" d="M929,757v8a0.827,0.827,0,0,0,1,1h25a0.943,0.943,0,0,0,1-1V753s8-12,8-20-7.21-22-22-22-20.205,12.707-21,15-2.323,12.033-4,13a4.271,4.271,0,0,0-1,3c0.187,0.719,3.344,1.031,4,1v9s1.344,3,4,3S928.473,754.163,929,757Zm4-4v8a0.971,0.971,0,0,0,1,1h17a1.148,1.148,0,0,0,1-1V750s8-8.8,8-17c0-5.546-5.855-17-17.863-17s-16.407,10.166-17.052,12-1.886,9.626-3.248,10.4a3.386,3.386,0,0,0-.812,2.4c0.153,0.575,2.715.825,3.248,0.8v7.2s1.091,2.4,3.248,2.4S932.572,750.73,933,753Zm6-32h-4l-7,17h4l1.376-3.608h6.868L942,738h4Zm-4.557,10.5L937,725l2.13,6.5h-4.687ZM951,738V721h-4v17h4Z" transform="translate(-915.969 -711)"/>
</svg>
