<svg xmlns="http://www.w3.org/2000/svg" width="1em" height="1em" viewBox="0 0 54 54"> <path id="bar-chart" d="M881,547H829a1,1,0,0,1-1-1V494a1,1,0,0,1,1-1h2a1,1,0,0,1,1,1v49h49a1,1,0,0,1,1,1v2A1,1,0,0,1,881,547Zm-8-11h-2a1,1,0,0,1-1-1V504a1,1,0,0,1,1-1h2a1,1,0,0,1,1,1v31A1,1,0,0,1,873,536Zm-10,0h-2a1,1,0,0,1-1-1V518a1,1,0,0,1,1-1h2a1,1,0,0,1,1,1v17A1,1,0,0,1,863,536Zm-10,0h-2a1,1,0,0,1-1-1V512a1,1,0,0,1,1-1h2a1,1,0,0,1,1,1v23A1,1,0,0,1,853,536Zm-10,0h-2a1,1,0,0,1-1-1V523a1,1,0,0,1,1-1h2a1,1,0,0,1,1,1v12A1,1,0,0,1,843,536Z" transform="translate(-828 -493)"/> </svg> 