<svg xmlns="http://www.w3.org/2000/svg" width="1em" height="1em" viewBox="0 0 810 810"> <path d="M11324.8,1959.64h-745.6a32.092,32.092,0,0,1-32.2-32V1181.61a32.092,32.092,0,0,1,32.2-32h745.6a32.092,32.092,0,0,1,32.2,32v746.03A32.092,32.092,0,0,1,11324.8,1959.64ZM10775,1658a16.021,16.021,0,0,0-16-16h-40a16.021,16.021,0,0,0-16,16v171a16.021,16.021,0,0,0,16,16h40a16.021,16.021,0,0,0,16-16V1658Zm142-141a16.021,16.021,0,0,0-16-16h-40a16.021,16.021,0,0,0-16,16v312a16.021,16.021,0,0,0,16,16h40a16.021,16.021,0,0,0,16-16V1517Zm142,54a16.021,16.021,0,0,0-16-16h-40a16.021,16.021,0,0,0-16,16v258a16.021,16.021,0,0,0,16,16h40a16.021,16.021,0,0,0,16-16V1571Zm142-251a16.021,16.021,0,0,0-16-16h-40a16.021,16.021,0,0,0-16,16v509a16.021,16.021,0,0,0,16,16h40a16.021,16.021,0,0,0,16-16V1320Z" transform="translate(-10547 -1149.63)"/> </svg> 