<svg xmlns="http://www.w3.org/2000/svg" width="430.81" height="430.82" viewBox="0 0 430.81 430.82"> <path id="矩形_4_拷贝_2" data-name="矩形 4 拷贝 2" d="M9884.25,3076l165.45,165.46a15.911,15.911,0,0,1,0,22.63l-22.6,22.63a15.964,15.964,0,0,1-22.6,0L9839,3121.25l-165.46,165.47a16,16,0,0,1-22.63,0l-22.63-22.63a16,16,0,0,1,0-22.63L9793.74,3076l-165.46-165.46a16,16,0,0,1,0-22.63l22.63-22.63a16,16,0,0,1,22.63,0L9839,3030.74l165.5-165.46a15.964,15.964,0,0,1,22.6,0l22.6,22.63a15.911,15.911,0,0,1,0,22.63Z" transform="translate(-9623.59 -2860.59)"/> </svg> 