<svg xmlns="http://www.w3.org/2000/svg" width="1em" height="1em" viewBox="0 0 54 54"> <path id="close-circle" d="M519,547a27,27,0,1,1,27-27A27,27,0,0,1,519,547Zm0-49a22,22,0,1,0,22,22A22,22,0,0,0,519,498Zm8.715,30.174-1.428,1.514a0.971,0.971,0,0,1-1.429,0l-5.877-6.611-5.917,6.611a0.981,0.981,0,0,1-1.436,0l-1.435-1.511a1.107,1.107,0,0,1,0-1.511l6.009-6.715L510.3,513.3a1.115,1.115,0,0,1,0-1.514l1.428-1.514a0.97,0.97,0,0,1,1.428,0l5.835,6.564,5.846-6.533a0.981,0.981,0,0,1,1.436,0l1.436,1.512a1.109,1.109,0,0,1,0,1.511l-5.94,6.636,5.951,6.693A1.117,1.117,0,0,1,527.715,528.174Z" transform="translate(-492 -493)"/> </svg> 