<svg xmlns="http://www.w3.org/2000/svg" width="1em" height="1em" viewBox="0 0 726 802"> <path id="圆角矩形_12" data-name="圆角矩形 12" d="M15790,4429h-51v554a31.985,31.985,0,0,1-32,32h-496a31.985,31.985,0,0,1-32-32V4429h-51a32,32,0,0,1,0-64h151V4245a31.985,31.985,0,0,1,32-32h296a31.985,31.985,0,0,1,32,32v120h151A32,32,0,0,1,15790,4429Zm-215-138.96a13.008,13.008,0,0,0-13-13.04h-206a13.008,13.008,0,0,0-13,13.04v61.92a13.008,13.008,0,0,0,13,13.04h206a13.008,13.008,0,0,0,13-13.04v-61.92Zm100,164.81a25.854,25.854,0,0,0-25.8-25.85h-380.4a25.854,25.854,0,0,0-25.8,25.85v470.3a25.854,25.854,0,0,0,25.8,25.85h380.4a25.854,25.854,0,0,0,25.8-25.85v-470.3ZM15537,4848a31.985,31.985,0,0,1-32-32V4574a32,32,0,0,1,64,0v242A31.985,31.985,0,0,1,15537,4848Zm-156,0a31.985,31.985,0,0,1-32-32V4574a32,32,0,0,1,64,0v242A31.985,31.985,0,0,1,15381,4848Z" transform="translate(-15096 -4213)"/> </svg> 