<svg xmlns="http://www.w3.org/2000/svg" width="48" height="53" viewBox="0 0 48 53">
  <metadata><?xpacket begin="﻿" id="W5M0MpCehiHzreSzNTczkc9d"?>
<x:xmpmeta xmlns:x="adobe:ns:meta/" x:xmptk="Adobe XMP Core 5.6-c142 79.160924, 2017/07/13-01:06:39        ">
   <rdf:RDF xmlns:rdf="http://www.w3.org/1999/02/22-rdf-syntax-ns#">
      <rdf:Description rdf:about=""/>
   </rdf:RDF>
</x:xmpmeta>
                                                                                                    
                                                                                                    
                                                                                                    
                                                                                                    
                                                                                                    
                                                                                                    
                                                                                                    
                                                                                                    
                                                                                                    
                                                                                                    
                                                                                                    
                                                                                                    
                                                                                                    
                                                                                                    
                                                                                                    
                                                                                                    
                                                                                                    
                                                                                                    
                                                                                                    
                                                                                                    
                           
<?xpacket end="w"?></metadata>
<defs>
    <style>
      .cls-1 {
        fill: #555;
        fill-rule: evenodd;
      }
    </style>
  </defs>
  <path id="delete" class="cls-1" d="M540.884,726.274h-3.372v36.611A2.115,2.115,0,0,1,535.4,765H502.6a2.116,2.116,0,0,1-2.116-2.115V726.274h-3.371a2.115,2.115,0,1,1,0-4.229H507.1v-7.93A2.115,2.115,0,0,1,509.215,712h19.57a2.115,2.115,0,0,1,2.116,2.115v7.93h9.983A2.115,2.115,0,1,1,540.884,726.274Zm-14.215-9.183a0.86,0.86,0,0,0-.858-0.862H512.189a0.861,0.861,0,0,0-.859.862v4.092a0.861,0.861,0,0,0,.859.862h13.622a0.86,0.86,0,0,0,.858-0.862v-4.092Zm6.612,10.891a1.708,1.708,0,0,0-1.708-1.708H506.427a1.708,1.708,0,0,0-1.708,1.708v31.08a1.707,1.707,0,0,0,1.708,1.708h25.146a1.708,1.708,0,0,0,1.708-1.708v-31.08Zm-9.124,25.982a2.115,2.115,0,0,1-2.116-2.115V735.857a2.116,2.116,0,0,1,4.232,0v15.992A2.116,2.116,0,0,1,524.157,753.964Zm-10.314,0a2.115,2.115,0,0,1-2.116-2.115V735.857a2.116,2.116,0,0,1,4.232,0v15.992A2.116,2.116,0,0,1,513.843,753.964Z" transform="translate(-495 -712)"/>
</svg>
