<svg xmlns="http://www.w3.org/2000/svg" width="1em" height="1em" viewBox="0 0 54 54"> <path d="M462,777c0,4.54-6,6-6,6H438s0.986,16-7,16c-4.5,0-5.752-7.586-8-14a117.654,117.654,0,0,0-5-12h-7a3,3,0,0,1-3-3V748a3,3,0,0,1,3-3h40s7,0.669,7,6a7.418,7.418,0,0,1-1,4,5,5,0,0,1,0,8s3,1.365,3,4-3,4-3,4S462,773.08,462,777Zm-44-26a2,2,0,0,0-2-2h-2a2,2,0,0,0-2,2v16a2,2,0,0,0,2,2h2a2,2,0,0,0,2-2V751Zm33,20s4-2.1,4-4-4-4-4-4,3-1.98,3-4-3-4-3-4,2-1.148,2-3c0-3.85-7-3-7-3H422v20.222s2.322,5.023,4,9.778c1.635,4.632,3.333,15,5,15,2.667,0,2-15,2-15h19s5,0.01,5-3C457,772.7,451,771,451,771Z" transform="translate(-408 -745)"/> </svg> 