<svg xmlns="http://www.w3.org/2000/svg" width="1em" height="53.906" viewBox="0 0 54 53.906"> <path d="M1133,799h-52a1,1,0,0,1-1-1v-2a1,1,0,0,1,1-1h52a1,1,0,0,1,1,1v2A1,1,0,0,1,1133,799Zm-30.36-13.053c-1.88,1.881-11.74,3.822-12.73,2.828s0.93-10.829,2.83-12.728l30.4-30.4a2,2,0,0,1,2.83,0l7.07,7.071a2,2,0,0,1,0,2.828Zm25.69-32.292-3.3-3.3a0.737,0.737,0,0,0-1.03.082l-28.34,28.345c-0.36.354-2.86,5.816-2.22,6.456s6.22-1.97,6.46-2.213l28.35-28.346A0.737,0.737,0,0,0,1128.33,753.655Z" transform="translate(-1080 -745.094)"/> </svg> 