<svg xmlns="http://www.w3.org/2000/svg" width="1em" height="1em" viewBox="0 0 870 680"> <path id="椭圆_5" data-name="椭圆 5" d="M12479,4954h-806a31.985,31.985,0,0,1-32-32V4306a31.985,31.985,0,0,1,32-32h806a31.985,31.985,0,0,1,32,32v616A31.985,31.985,0,0,1,12479,4954Zm-32-589.98a25.984,25.984,0,0,0-26-26.02h-690a25.984,25.984,0,0,0-26,26.02v499.96a25.984,25.984,0,0,0,26,26.02h690a25.984,25.984,0,0,0,26-26.02V4364.02Zm-351.8,295.25a33.846,33.846,0,0,1-40.6.11l-299.4-234.09a31.99,31.99,0,1,1,39.4-50.41l280.2,219.09L12355.3,4375a32.006,32.006,0,1,1,39.4,50.45Zm-221.6,46.53c0.5-.39,1-0.76,1.5-1.12a31.5,31.5,0,0,1,50.9,24.82,36.01,36.01,0,0,1-13,26.7l-118.3,92.01a31.982,31.982,0,1,1-39.4-50.39Zm401.6-1.89,119.5,93.75a32,32,0,0,1-39.4,50.43l-119.5-93.74A32,32,0,0,1,12275.2,4703.91Z" transform="translate(-11641 -4274)"/> </svg> 