<svg xmlns="http://www.w3.org/2000/svg" width="12" height="9" viewBox="0 0 12 9">
  <path fill="#999" d="M10.1783247,0.0596905267 L1.47145296,0.0596905267 L1.47145296,0.0596905267 C0.671224879,0.0560864965 0.0195824025,0.701864971 0.0159412139,1.50209647 C0.0159412139,1.50428575 0.0159412139,1.50647506 0.0159412139,1.50866437 L0.0159412139,7.12464014 C0.0159412139,7.92557045 0.663966707,8.57359253 1.46489361,8.57359253 L10.1717653,8.57359253 L10.1717653,8.57359253 C10.972001,8.57359253 11.6207177,7.92487334 11.6207177,7.12464014 C11.6207177,7.12464014 11.6207177,7.12464014 11.6207177,7.12464014 L11.6207177,1.50866437 L11.6207177,1.50864954 C11.6207177,0.710965891 10.9759764,0.0633064482 10.1783013,0.0596905267 L10.1783247,0.0596905267 Z M10.118619,3.32313149 L6.0309662,5.98149108 L6.03096619,5.98149109 C5.90353811,6.06377257 5.73972602,6.06377257 5.61229794,5.98149108 L1.52464514,3.32313149 L1.52464514,3.32313148 C1.33604062,3.21551021 1.27039053,2.97537199 1.3780118,2.78676832 C1.48563308,2.59816381 1.7257713,2.53251371 1.91437496,2.64013499 C1.9242805,2.64578728 1.93393543,2.65186787 1.94331237,2.6583595 L5.82491056,5.16964206 L9.70578347,2.67074035 L9.70578351,2.67074033 C9.88587075,2.5494037 10.1302224,2.59703073 10.251559,2.77711755 C10.3728957,2.95720479 10.3252686,3.20155643 10.1451818,3.32289306 C10.1386425,3.32729901 10.1319722,3.33150727 10.1251799,3.33551206 L10.1178987,3.32240593 L10.118619,3.32313149 Z"/>
</svg>
