<svg xmlns="http://www.w3.org/2000/svg" width="54" height="54" viewBox="0 0 54 54">
  <path d="M1263,734a27,27,0,1,1,27-27A27,27,0,0,1,1263,734Zm8.7-33.669a1.1,1.1,0,0,0,0-1.512l-1.43-1.511a0.985,0.985,0,0,0-1.44,0l-5.84,6.533-5.84-6.564a0.972,0.972,0,0,0-1.43,0l-1.43,1.514a1.126,1.126,0,0,0,0,1.514l5.91,6.645-6.01,6.715a1.123,1.123,0,0,0,0,1.512l1.44,1.511a0.974,0.974,0,0,0,1.43,0l5.92-6.612,5.88,6.611a0.972,0.972,0,0,0,1.43,0l1.42-1.513a1.105,1.105,0,0,0,0-1.514l-5.95-6.693Z" transform="translate(-1236 -680)"/>
</svg>
