<svg xmlns="http://www.w3.org/2000/svg" width="1em" height="1em" viewBox="0 0 46 54"> <path d="M956,666a1,1,0,0,0-1-1H921a1,1,0,0,0-1,1v42a1,1,0,0,0,1,1h15v4H918a2,2,0,0,1-2-2V663a2,2,0,0,1,2-2h40a2,2,0,0,1,2,2v26h-4V666Zm-29,15h9a1,1,0,0,1,1,1v2a1,1,0,0,1-1,1h-9a1,1,0,0,1-1-1v-2A1,1,0,0,1,927,681Zm-1-7a1,1,0,0,1,1-1h22a1,1,0,0,1,1,1v2a1,1,0,0,1-1,1H927a1,1,0,0,1-1-1v-2Zm23,15a13,13,0,1,1-13,13A13,13,0,0,1,949,689Zm0,22a9,9,0,1,0-9-9A9,9,0,0,0,949,711Zm-1-15h2a1,1,0,0,1,1,1v5a1,1,0,0,1-1,1h-2a1,1,0,0,1-1-1v-5A1,1,0,0,1,948,696Zm1,8a2,2,0,1,1-2,2A2,2,0,0,1,949,704Z" transform="translate(-916 -661)"/> </svg> 