<svg xmlns="http://www.w3.org/2000/svg" width="1em" height="1em" viewBox="0 0 42 54"> <path id="file-text" d="M1126,463h-38a2,2,0,0,1-2-2V411a2,2,0,0,1,2-2h26l14,14v38A2,2,0,0,1,1126,463Zm-13-49v8a2,2,0,0,0,2,2h8Zm11,14h-13a2,2,0,0,1-2-2V413h-17a2,2,0,0,0-2,2v42a2,2,0,0,0,2,2h30a2,2,0,0,0,2-2V428Zm-6,10h-22a1,1,0,0,1-1-1v-2a1,1,0,0,1,1-1h22a1,1,0,0,1,1,1v2A1,1,0,0,1,1118,438Zm-22,4h10a1,1,0,0,1,1,1v2a1,1,0,0,1-1,1h-10a1,1,0,0,1-1-1v-2A1,1,0,0,1,1096,442Z" transform="translate(-1086 -409)"/> </svg> 