<svg xmlns="http://www.w3.org/2000/svg" width="46" height="54" viewBox="0 0 46 54">
  <path d="M788,717a1,1,0,0,0-1-1H753a1,1,0,0,0-1,1v42a1,1,0,0,0,1,1h15v4H750a2,2,0,0,1-2-2V714a2,2,0,0,1,2-2h40a2,2,0,0,1,2,2v26h-4V717Zm-30,10v-2a1,1,0,0,1,1-1h22a1,1,0,0,1,1,1v2a1,1,0,0,1-1,1H759A1,1,0,0,1,758,727Zm1,11a1,1,0,0,1-1-1v-2a1,1,0,0,1,1-1h9a1,1,0,0,1,1,1v2a1,1,0,0,1-1,1h-9Zm34,20h-6v7a1,1,0,0,1-1,1h-2a1,1,0,0,1-1-1v-7h-7a1,1,0,0,1-1-1v-2a1,1,0,0,1,1-1h7v-6a1,1,0,0,1,1-1h2a1,1,0,0,1,1,1v6h6a1,1,0,0,1,1,1v2A1,1,0,0,1,793,758Z" transform="translate(-748 -712)"/>
</svg>
