<svg xmlns="http://www.w3.org/2000/svg" width="1em" height="1em" viewBox="0 0 46.188 53.688">
<path d="M877.45,797.95a2.5,2.5,0,0,1-3.536,0l-6.364-6.364a2.488,2.488,0,0,1-.426-0.593,9.033,9.033,0,1,1,3.534-3.282,2.49,2.49,0,0,1,.428.339l6.364,6.364A2.5,2.5,0,0,1,877.45,797.95ZM863,778a5,5,0,1,0,5,5A5,5,0,0,0,863,778Zm9-28a1,1,0,0,0-1-1H837a1,1,0,0,0-1,1v42a1,1,0,0,0,1,1h15v4H834a2,2,0,0,1-2-2V747a2,2,0,0,1,2-2h40a2,2,0,0,1,2,2v26h-4V750Zm-30,10v-2a1,1,0,0,1,1-1h22a1,1,0,0,1,1,1v2a1,1,0,0,1-1,1H843A1,1,0,0,1,842,760Zm1,9a1,1,0,0,1-1-1v-2a1,1,0,0,1,1-1h9a1,1,0,0,1,1,1v2a1,1,0,0,1-1,1h-9Z" transform="translate(-832 -745)"/>
</svg> 