<svg xmlns="http://www.w3.org/2000/svg" width="1em" height="1em" viewBox="0 0 46 56"> <path d="M435,884a23,23,0,0,1-23-23c0-6.745,2.942-14.091,7-17,12.015-7.4,8-16,8-16,8.107,3.481,12.291,7.53,14,11,0.024,0.007.047,0.014,0,0,2.559,4.385,3,12,3,12,4.6-4.07,4.1-8.369,4.011-8.934A22.979,22.979,0,0,1,435,884Zm17-28c-0.6-1.8-2-6-2-6s-2.709,5.561-9,6c0,0-2.35-17.039-9-19,0,0-1.4,5.9-10,11-8.457,5.012-6.906,31.349,13,31C450.111,878.735,454.63,863.978,452,856Z" transform="translate(-412 -828)"/> </svg> 