<svg xmlns="http://www.w3.org/2000/svg" width="54.312" height="54.312" viewBox="0 0 54.312 54.312"> <path id="fullscreem-exit" d="M785.142,426.1h0l2.828,2.827-10.155.823c-0.388.032-.444-0.121-0.444-0.121s-0.153-.058-0.121-0.449c0.186-2.292.822-10.15,0.822-10.15l2.828,2.828h0l12.728-12.728a1,1,0,0,1,1.415,0l2.828,2.828a1,1,0,0,1,0,1.415ZM761.1,450.141h0L748.373,462.87a1,1,0,0,1-1.415,0l-2.828-2.829a1,1,0,0,1,0-1.414L756.858,445.9h0l-2.828-2.828,10.15-.822c0.391-.032.449,0.121,0.449,0.121s0.153,0.056.121,0.444c-0.185,2.286-.823,10.155-0.823,10.155Zm3.529-20.511s-0.058.153-.449,0.121l-10.15-.823,2.828-2.827h0L744.13,413.373a1,1,0,0,1,0-1.415l2.828-2.828a1,1,0,0,1,1.415,0L761.1,421.858h0l2.827-2.828s0.638,7.869.823,10.155C764.783,429.574,764.63,429.63,764.63,429.63Zm12.74,12.74s0.056-.153.444-0.122l10.155,0.823-2.828,2.828h0l12.728,12.728a1,1,0,0,1,0,1.414l-2.828,2.829a1,1,0,0,1-1.415,0L780.9,450.142h0l-2.828,2.828s-0.636-7.858-.822-10.15C777.217,442.428,777.37,442.37,777.37,442.37Z" transform="translate(-743.844 -408.844)"/> </svg> 