<svg xmlns="http://www.w3.org/2000/svg" width="1em" height="1em" viewBox="0 0 51.125 51.125"> <path d="M708.921,418.321h0L696.192,431.05a1,1,0,0,1-1.414,0l-2.828-2.828a1,1,0,0,1,0-1.415l12.728-12.727h0l-2.827-2.827,10.15-.823c0.391-.032.449,0.121,0.449,0.121s0.153,0.056.121,0.444c-0.185,2.286-.823,10.155-0.823,10.155Zm-39.6,39.6h0l2.828,2.827-10.155.823c-0.388.032-.444-0.121-0.444-0.121s-0.153-.058-0.121-0.449c0.186-2.292.823-10.15,0.823-10.15l2.827,2.827h0l12.727-12.728a1,1,0,0,1,1.415,0l2.828,2.828a1,1,0,0,1,0,1.414Zm9.9-26.87a1,1,0,0,1-1.415,0L665.08,418.322h0l-2.827,2.828s-0.637-7.858-.823-10.15c-0.032-.391.121-0.449,0.121-0.449s0.056-.153.444-0.121l10.155,0.823-2.828,2.827h0l12.728,12.727a1,1,0,0,1,0,1.415Zm15.556,9.9a1,1,0,0,1,1.414,0l12.728,12.728h0l2.827-2.827s0.638,7.869.823,10.154c0.032,0.389-.121.445-0.121,0.445s-0.058.152-.449,0.121l-10.15-.823,2.827-2.827h0L691.95,445.192a1,1,0,0,1,0-1.414Z" transform="translate(-661.438 -410.438)"/> </svg> 