<svg xmlns="http://www.w3.org/2000/svg" width="1em" height="54.406" viewBox="0 0 54 54.406"> <path d="M712,773h-2v24a2,2,0,0,1-2,2H666a2,2,0,0,1-2-2V773h-2a2,2,0,0,1-2-2V760a2,2,0,0,1,2-2h10.53a10.541,10.541,0,0,1-.708-1.382c-0.023-.054-0.048-0.106-0.07-0.161a10.264,10.264,0,0,1-.451-1.378c-0.018-.068-0.033-0.136-0.049-0.2a10.168,10.168,0,0,1-.227-1.4c0-.05,0-0.1-0.009-0.15a9.549,9.549,0,0,1,.214-2.829c0.015-.062.026-0.125,0.042-0.186a8.442,8.442,0,0,1,.42-1.236c0.03-.072.062-0.142,0.094-0.213a7.892,7.892,0,0,1,.628-1.127c0.035-.052.075-0.1,0.112-0.153a7.372,7.372,0,0,1,.875-1.036c2.991-2.9,7.778-2.515,10.975.727a6.323,6.323,0,0,1,.805,1.045c0.046,0.072.093,0.142,0.137,0.217a9.585,9.585,0,0,1,.618,1.247c0.017,0.042.031,0.086,0.048,0.128a15.422,15.422,0,0,1,.83,3.113c0.062-.006.122-0.019,0.186-0.019a1.96,1.96,0,0,1,.308.031h0c0.091-.511.205-1.016,0.343-1.511,0.01-.036.021-0.071,0.032-0.107a12.588,12.588,0,0,1,.461-1.341c0.011-.027.021-0.055,0.032-0.082a9.055,9.055,0,0,1,.6-1.174c0.048-.078.1-0.151,0.147-0.226a6.11,6.11,0,0,1,.775-0.982c3.179-3.161,7.938-3.533,10.912-.709a7.31,7.31,0,0,1,.863,1c0.038,0.052.078,0.1,0.115,0.154a7.634,7.634,0,0,1,.62,1.088c0.033,0.07.065,0.14,0.1,0.211a8.216,8.216,0,0,1,.418,1.2c0.015,0.058.025,0.117,0.039,0.175a8.718,8.718,0,0,1,.222,1.334h0a9.252,9.252,0,0,1,0,1.383c0,0.062,0,.123-0.01.185a9.863,9.863,0,0,1-.214,1.339c-0.016.072-.034,0.143-0.052,0.215a10.05,10.05,0,0,1-.435,1.332c-0.02.049-.044,0.1-0.065,0.145a10,10,0,0,1-.688,1.342H712a2,2,0,0,1,2,2v11A2,2,0,0,1,712,773Zm-30.3-22.586c-1.626-1.76-4.077-1.923-5.558-.322a5.119,5.119,0,0,0,.239,6.648c1.758,2.007,5.74,1.188,6.231.535S683.354,752.2,681.7,750.414ZM685,762h-3.866c-0.412.019-.833,0.017-1.257,0H665a1,1,0,0,0-1,1v5a1,1,0,0,0,1,1h20v-7Zm0,11H669a1,1,0,0,0-1,1v20a1,1,0,0,0,1,1h16V773Zm4,22h16a1,1,0,0,0,1-1V774a1,1,0,0,0-1-1H689v22Zm8.884-44.64a3.734,3.734,0,0,0-5.524.314c-1.642,1.743-1.387,6.064-.907,6.689s4.446,1.435,6.194-.522A4.917,4.917,0,0,0,697.884,750.36ZM710,763a1,1,0,0,0-1-1H689v7h20a1,1,0,0,0,1-1v-5Z" transform="translate(-660 -744.594)"/> </svg> 