<svg xmlns="http://www.w3.org/2000/svg" width="46.81" height="53.313" viewBox="0 0 46.81 53.313">
  <metadata><?xpacket begin="﻿" id="W5M0MpCehiHzreSzNTczkc9d"?>
<x:xmpmeta xmlns:x="adobe:ns:meta/" x:xmptk="Adobe XMP Core 5.6-c142 79.160924, 2017/07/13-01:06:39        ">
   <rdf:RDF xmlns:rdf="http://www.w3.org/1999/02/22-rdf-syntax-ns#">
      <rdf:Description rdf:about=""/>
   </rdf:RDF>
</x:xmpmeta>
                                                                                                    
                                                                                                    
                                                                                                    
                                                                                                    
                                                                                                    
                                                                                                    
                                                                                                    
                                                                                                    
                                                                                                    
                                                                                                    
                                                                                                    
                                                                                                    
                                                                                                    
                                                                                                    
                                                                                                    
                                                                                                    
                                                                                                    
                                                                                                    
                                                                                                    
                                                                                                    
                           
<?xpacket end="w"?></metadata>
<defs>
    <style>
      .cls-1 {
        fill: #555;
        fill-rule: evenodd;
      }
    </style>
  </defs>
  <path id="Guide_manual" data-name="Guide manual" class="cls-1" d="M1041,717a1,1,0,0,0-1-1h-34a1,1,0,0,0-1,1v42a1,1,0,0,0,1,1h15v4h-18a2,2,0,0,1-2-2V714a2,2,0,0,1,2-2h40a2,2,0,0,1,2,2v26h-4V717Zm-29,21a1,1,0,0,1-1-1v-2a1,1,0,0,1,1-1h9a1,1,0,0,1,1,1v2a1,1,0,0,1-1,1h-9Zm0-10a1,1,0,0,1-1-1v-2a1,1,0,0,1,1-1h22a1,1,0,0,1,1,1v2a1,1,0,0,1-1,1h-22Zm19.12,21.27-0.06-.061,0.1-.038,0.24-.661,0.41,0.407,16.01-6.242-6.24,16.016,0.41,0.407-0.66.245-0.04.1-0.06-.062-16.06,5.946Zm3.67,3.305-2.9,6.033,6.03-2.9,3.1-6.233Z" transform="translate(-1001 -712)"/>
</svg>
