<svg xmlns="http://www.w3.org/2000/svg" width="46.81" height="53.313" viewBox="0 0 46.81 53.313">
  <path d="M1041,717a1,1,0,0,0-1-1h-34a1,1,0,0,0-1,1v42a1,1,0,0,0,1,1h15v4h-18a2,2,0,0,1-2-2V714a2,2,0,0,1,2-2h40a2,2,0,0,1,2,2v26h-4V717Zm-29,21a1,1,0,0,1-1-1v-2a1,1,0,0,1,1-1h9a1,1,0,0,1,1,1v2a1,1,0,0,1-1,1h-9Zm0-10a1,1,0,0,1-1-1v-2a1,1,0,0,1,1-1h22a1,1,0,0,1,1,1v2a1,1,0,0,1-1,1h-22Zm19.12,21.27-0.06-.061,0.1-.038,0.24-.661,0.41,0.407,16.01-6.242-6.24,16.016,0.41,0.407-0.66.245-0.04.1-0.06-.062-16.06,5.946Zm3.67,3.305-2.9,6.033,6.03-2.9,3.1-6.233Z" transform="translate(-1001 -712)"/>
</svg>
