<svg xmlns="http://www.w3.org/2000/svg" width="1em" height="1em" viewBox="0 0 54 54.031"> <path d="M456,692v21a2,2,0,0,1-2,2H416a2,2,0,0,1-2-2V692h-5.994s19.722-22.835,25.451-30.049C434.43,660.721,435,661,435,661s0.574-.277,1.555.958C442.3,669.2,461.994,692,461.994,692H456Zm-17,19V700a1,1,0,0,0-1-1h-6a1,1,0,0,0-1,1v11h8Zm13-23.415c-5.778-6.791-12.475-13.883-15.445-17.623C435.574,668.727,435,669,435,669s-0.57-.283-1.543.942c-2.964,3.733-9.671,10.838-15.457,17.639V692h34v-4.411ZM452,692H418v18a1,1,0,0,0,1,1h8V697a2,2,0,0,1,2-2h12a2,2,0,0,1,2,2v14h8a1,1,0,0,0,1-1V692Z" transform="translate(-408 -660.969)"/> </svg> 