<svg xmlns="http://www.w3.org/2000/svg" width="1em" height="1em" viewBox="0 0 42 54"> <path d="M1126,379h-38a2,2,0,0,1-2-2V327a2,2,0,0,1,2-2h26l14,14v38A2,2,0,0,1,1126,379Zm-13-49v8a2,2,0,0,0,2,2h8Zm11,14h-13a2,2,0,0,1-2-2V329h-17a2,2,0,0,0-2,2v42a2,2,0,0,0,2,2h30a2,2,0,0,0,2-2V344Zm-8.64,18.625a4.7,4.7,0,0,1-2.35-.566,3.616,3.616,0,0,1-1.51-1.617,5.308,5.308,0,0,1-.5-2.288,5,5,0,0,1,.56-2.385,3.838,3.838,0,0,1,1.65-1.6,4.458,4.458,0,0,1,2.06-.428,4.09,4.09,0,0,1,2.49.671,3.021,3.021,0,0,1,1.16,1.854l-1.72.323a1.829,1.829,0,0,0-.68-1,2.067,2.067,0,0,0-1.25-.367,2.344,2.344,0,0,0-1.81.721,3.024,3.024,0,0,0-.67,2.139,3.33,3.33,0,0,0,.68,2.294,2.256,2.256,0,0,0,1.78.764,2.956,2.956,0,0,0,1.09-.214,3.617,3.617,0,0,0,.94-0.518v-1.09h-1.99v-1.447h3.74V361.3a4.672,4.672,0,0,1-1.58.928A5.705,5.705,0,0,1,1115.36,362.625Zm-7.1-3.917a2.434,2.434,0,0,1-.9.407,9.852,9.852,0,0,1-1.8.123h-1.13v3.24h-1.73v-8.59h2.78a10.017,10.017,0,0,1,2.06.129,2.231,2.231,0,0,1,1.24.841,2.68,2.68,0,0,1,.5,1.673,2.818,2.818,0,0,1-.29,1.33A2.291,2.291,0,0,1,1108.26,358.708Zm-1.04-2.927a1.232,1.232,0,0,0-.7-0.381,8.339,8.339,0,0,0-1.25-.059h-0.84v2.438h0.95a4.438,4.438,0,0,0,1.37-.135,1.206,1.206,0,0,0,.55-0.422,1.156,1.156,0,0,0,.19-0.668A1.122,1.122,0,0,0,1107.22,355.781Zm-8.39,6.39a3.076,3.076,0,0,1-1.75.454,2.6,2.6,0,0,1-1.96-.712,2.931,2.931,0,0,1-.69-2.089l1.64-.188a2.241,2.241,0,0,0,.21,1.043,0.935,0.935,0,0,0,.86.463,0.953,0.953,0,0,0,.82-0.331,2.605,2.605,0,0,0,.24-1.374v-5.549h1.73v5.438a5.711,5.711,0,0,1-.19,1.641A2.335,2.335,0,0,1,1098.83,362.171Z" transform="translate(-1086 -325)"/> </svg> 