<svg xmlns="http://www.w3.org/2000/svg" width="1em" height="1em" viewBox="0 0 53.969 54.531"> <path d="M624.334,778.95a19.991,19.991,0,0,1-25.649,2.193l-17.9,17.9a1,1,0,0,1-1.415,0l-1.414-1.415a1,1,0,0,1,0-1.414l4.95-4.95-6.364-6.364a1,1,0,0,1,0-1.414l1.414-1.414a1,1,0,0,1,1.414,0l6.364,6.364-0.181.181,4.424-4.424-6.364-6.364a1,1,0,0,1,0-1.414L585.029,775a1,1,0,0,1,1.415,0l6.363,6.364,2.85-2.85A19.989,19.989,0,1,1,624.334,778.95ZM620.8,754.2a15,15,0,1,0,0,21.213A15,15,0,0,0,620.8,754.2Z" transform="translate(-576.25 -744.813)"/> </svg> 