<svg xmlns="http://www.w3.org/2000/svg" width="1em" height="1em" viewBox="0 0 54 54"> <path d="M373,773s3,1.365,3,4-3,4-3,4a5,5,0,0,1,0,8,7.418,7.418,0,0,1,1,4c0,5.331-7,6-7,6H327a3,3,0,0,1-3-3V774a3,3,0,0,1,3-3h7a117.654,117.654,0,0,0,5-12c2.248-6.414,3.5-14,8-14,7.986,0,7,16,7,16h18s6,1.46,6,6C378,770.92,373,773,373,773Zm-41,2h-2a2,2,0,0,0-2,2v16a2,2,0,0,0,2,2h2a2,2,0,0,0,2-2V777A2,2,0,0,0,332,775Zm36-10H349s0.667-15-2-15c-1.667,0-3.365,10.368-5,15-1.678,4.755-4,9.778-4,9.778V795h24s7,0.85,7-3c0-1.852-2-3-2-3s3-1.98,3-4-3-4-3-4,4-2.1,4-4-4-4-4-4,6-1.7,6-5C373,764.989,368,765,368,765Z" transform="translate(-324 -745)"/> </svg> 