<svg xmlns="http://www.w3.org/2000/svg" viewBox="0 0 840.1 658.16">
<path d="M14754.9,1759.92V1882a15.957,15.957,0,0,1-16,16h-25a16.021,16.021,0,0,1-16-16v-92h-726v92a15.957,15.957,0,0,1-16,16h-25a16.021,16.021,0,0,1-16-16V1718c0-.42.1-0.83,0.1-1.24V1482a31.985,31.985,0,0,1,32-32h88V1271.85a31.985,31.985,0,0,1,32-32h536a31.985,31.985,0,0,1,32,32V1450h88a31.985,31.985,0,0,1,32,32v276A12.229,12.229,0,0,1,14754.9,1759.92ZM14303,1355.84a16.028,16.028,0,0,0-16-16h-172a16.028,16.028,0,0,0-16,16V1450h204v-94.16Zm268,0a16.028,16.028,0,0,0-16-16h-172a16.028,16.028,0,0,0-16,16V1450h204v-94.16Z" transform="translate(-13914.9 -1239.84)"/> </svg> 