<svg xmlns="http://www.w3.org/2000/svg" width="9" height="12" viewBox="0 0 9 12">
  <path fill="#999" d="M7.875,4 L7.31233281,4 L7.31233281,2.85699888 C7.31266614,1.25699951 6.07533281,0 4.5,0 C2.92467656,0 1.68733281,1.25699951 1.68733281,2.85699888 L1.68733281,4 L1.125,4 C0.506332813,4 0,4.51433105 0,5.14299799 L0,10.8566676 C0,11.4856674 0.506332813,12 1.125,12 L7.875,12 C8.49366719,12 9,11.4856674 9,10.8570004 L9,5.1433308 C9,4.51433105 8.49366719,4 7.875,4 L7.875,4 Z M4.5,9.14299643 C3.88133281,9.14299643 3.375,8.62866382 3.375,7.99999688 C3.375,7.37132993 3.88133281,6.85699732 4.5,6.85699732 C5.11866719,6.85699732 5.625,7.37132993 5.625,7.99999688 C5.625,8.62866382 5.11866719,9.14299643 4.5,9.14299643 Z M6.24367188,3.99999844 L2.75667188,3.99999844 L2.75667188,2.85699888 C2.75667188,1.88566645 3.54400469,1.08567145 4.50034375,1.08567145 C5.45667656,1.08567145 6.24401563,1.88567114 6.24401563,2.85699888 L6.24401563,3.99999844 L6.24367188,3.99999844 Z"/>
</svg>
