<svg xmlns="http://www.w3.org/2000/svg" width="1em" height="1em" viewBox="0 0 54 46"> <path id="menu-unfold" d="M629,459H577a1,1,0,0,1-1-1v-2a1,1,0,0,1,1-1h52a1,1,0,0,1,1,1v2A1,1,0,0,1,629,459Zm0-14H597a1,1,0,0,1-1-1v-2a1,1,0,0,1,1-1h32a1,1,0,0,1,1,1v2A1,1,0,0,1,629,445Zm0-14H597a1,1,0,0,1-1-1v-2a1,1,0,0,1,1-1h32a1,1,0,0,1,1,1v2A1,1,0,0,1,629,431Zm-52.555,4.428L588,426v20l-11.548-9.422c-0.445-.363-0.345-0.576-0.345-0.576S576,435.789,576.445,435.428ZM629,417H577a1,1,0,0,1-1-1v-2a1,1,0,0,1,1-1h52a1,1,0,0,1,1,1v2A1,1,0,0,1,629,417Z" transform="translate(-576 -413)"/> </svg> 