<svg xmlns="http://www.w3.org/2000/svg" width="1em" height="1em" viewBox="0 0 810 801"> <path id="模块管理" d="M12838.2,1579.61h315.6a32.092,32.092,0,0,1,32.2,32v316.03a32.092,32.092,0,0,1-32.2,32h-315.6a32.092,32.092,0,0,1-32.2-32V1611.61A32.092,32.092,0,0,1,12838.2,1579.61Zm430,0h315.6a32.092,32.092,0,0,1,32.2,32v316.03a32.092,32.092,0,0,1-32.2,32h-315.6a32.092,32.092,0,0,1-32.2-32V1611.61A32.092,32.092,0,0,1,13268.2,1579.61Zm-430-421h315.6a32.092,32.092,0,0,1,32.2,32v316.03a32.092,32.092,0,0,1-32.2,32h-315.6a32.092,32.092,0,0,1-32.2-32V1190.61A32.092,32.092,0,0,1,12838.2,1158.61Zm412.6,167.2,152.4-152.38a32.089,32.089,0,0,1,45.4-.18l152.8,152.76a32.116,32.116,0,0,1-.2,45.43l-152.4,152.38a32.089,32.089,0,0,1-45.4.18l-152.8-152.76A32.116,32.116,0,0,1,13250.8,1325.81Z" transform="translate(-12806 -1158.63)"/> </svg> 