<svg xmlns="http://www.w3.org/2000/svg" width="1em" height="1em" viewBox="0 0 850 850"> <path id="机会" d="M16583,1980c-234.7,0-425-190.28-425-425s190.3-425,425-425a424.443,424.443,0,0,1,154,28.76l-63.9,119.47A291.407,291.407,0,0,0,16583,1264c-160.7,0-291,130.28-291,291s130.3,291,291,291,291-130.29,291-291a288.123,288.123,0,0,0-13.3-87.08l121.3-59.5a423.9,423.9,0,0,1,26,146.58C17008,1789.72,16817.7,1980,16583,1980Zm226.5-486.63a235.246,235.246,0,0,1,8.5,62.63c0,129.23-104.8,234-234,234s-234-104.77-234-234,104.8-234,234-234a234.168,234.168,0,0,1,61.8,8.27l-43.5,82.08A144.806,144.806,0,1,0,16728.8,1556a157.3,157.3,0,0,0-1.6-21.86ZM16741,1440l-112.4,103.62a47.031,47.031,0,1,1-28.6-32.43L16702,1399v-73l142-141v84s12.5,0.38,20,9a34.35,34.35,0,0,1,8,20h86l-143,142h-74Z" transform="translate(-16158 -1130)"/> </svg> 