<svg xmlns="http://www.w3.org/2000/svg" width="55.063" height="48.688" viewBox="0 0 55.063 48.688"> <path id="paper-clip" d="M795.1,372.738a11.486,11.486,0,0,1-15.12.978l-0.083.083-24.041-24.042a7,7,0,1,1,9.9-9.9l19.8,19.8-3.535,3.535-19.8-19.8a2,2,0,0,0-2.829,2.829l23.335,23.334,0.036-.035a6.467,6.467,0,0,0,9.121-9.122l0.035-.035-24.748-24.749a11,11,0,0,0-15.557,15.557l21.213,21.213-3.535,3.535L748.08,354.707a16,16,0,0,1,22.627-22.627l25.456,25.455-0.083.084A11.485,11.485,0,0,1,795.1,372.738Z" transform="translate(-743.406 -327.406)"/> </svg> 