<svg xmlns="http://www.w3.org/2000/svg" width="1em" height="1em" viewBox="0 0 54 56"> <path d="M964,366h-8v12a2,2,0,0,1-2,2H924a2,2,0,0,1-2-2V366h-8a2,2,0,0,1-2-2V337a2,2,0,0,1,2-2h8v-9a2,2,0,0,1,2-2h30a2,2,0,0,1,2,2v9h8a2,2,0,0,1,2,2v27A2,2,0,0,1,964,366Zm-38,8a2,2,0,0,0,2,2h22a2,2,0,0,0,2-2V358a2,2,0,0,0-2-2H928a2,2,0,0,0-2,2v16Zm26-44a2,2,0,0,0-2-2H928a2,2,0,0,0-2,2v5h26v-5Zm10,11a2,2,0,0,0-2-2H918a2,2,0,0,0-2,2v19a2,2,0,0,0,2,2h4v-8a2,2,0,0,1,2-2h30a2,2,0,0,1,2,2v8h4a2,2,0,0,0,2-2V341Zm-30,7a2,2,0,1,1,2-2A2,2,0,0,1,932,348Zm-8,0a2,2,0,1,1,2-2A2,2,0,0,1,924,348Z" transform="translate(-912 -324)"/> </svg> 