<svg xmlns="http://www.w3.org/2000/svg" width="705.3" height="854.31" viewBox="0 0 705.3 854.31"> <path d="M15457.3,1979.01c-429.5-288.16-344.6-747.83-344.1-750.33,12.9,1.04,26,1.58,39.2,1.58a480.705,480.705,0,0,0,301.3-105.56c0.5-.01,1.1-0.01,1.6-0.02a480.6,480.6,0,0,0,301.3,105.58c15.7,0,31.3-.76,46.6-2.23,0.5,0.21,1,.42,1.6.63C15804.8,1228.66,15889.1,1690.06,15457.3,1979.01Zm183.8-539.81-27.8-27.8a15.662,15.662,0,0,0-22.2,0l-140.6,140.58-77.9-77.86a15.783,15.783,0,0,0-22.3,0l-27.6,27.65a15.633,15.633,0,0,0,0,22.25l116.8,116.79a15.662,15.662,0,0,0,22.2,0l27.7-27.65v-0.01l151.7-151.7A15.633,15.633,0,0,0,15641.1,1439.2Z" transform="translate(-15106.1 -1124.69)"/> </svg> 