<svg xmlns="http://www.w3.org/2000/svg" width="1em" height="1em" viewBox="0 0 680 809"> <path d="M12384,1960h-616a31.985,31.985,0,0,1-32-32V1183a31.985,31.985,0,0,1,32-32h477v163a8.011,8.011,0,0,0,8,8h163v606A31.985,31.985,0,0,1,12384,1960Zm-126.1-443.13-28.3-28.29a15.964,15.964,0,0,0-22.6,0l-143,142.99-79.2-79.19a15.964,15.964,0,0,0-22.6,0l-28.1,28.12a15.911,15.911,0,0,0,0,22.63l90.5,90.51h0l28.3,28.29a15.982,15.982,0,0,0,22.6,0l28.1-28.13v-0.01l154.3-154.3A15.9,15.9,0,0,0,12257.9,1516.87ZM12307,1252V1151h0.4l108.6,108.59V1260h-101A8.011,8.011,0,0,1,12307,1252Z" transform="translate(-11736 -1151)"/> </svg> 