<svg xmlns="http://www.w3.org/2000/svg" width="1em" height="1em" viewBox="0 0 54 54"> <path d="M1048.84,344.908s-0.07.147-.47,0.059C1046.03,344.447,1037,342,1037,342l3.81-2.872A21.979,21.979,0,0,0,1001,352h-5a26.975,26.975,0,0,1,48.8-15.878l4.14-3.12s0.04,9.113.06,11.47C1049,344.873,1048.84,344.908,1048.84,344.908Zm-51.68,14.184s0.071-.147.471-0.059c2.341,0.52,12.369,3.3,12.369,3.3l-4.3,3.214A21.977,21.977,0,0,0,1045,352h5a26.979,26.979,0,0,1-48.31,16.539L997.064,372s-0.049-10.114-.063-12.471C997,359.127,997.16,359.092,997.16,359.092Z" transform="translate(-996 -325)"/> </svg> 