<svg xmlns="http://www.w3.org/2000/svg" width="1em" height="1em" viewBox="0 0 876 828"> <path id="点评" d="M9100.9,1619.92h-27.4v66.77h0a38.482,38.482,0,0,1-.83,8.09,35.158,35.158,0,0,1-1.67,5.21c-0.26.77-.4,1.59-0.72,2.32a37.229,37.229,0,0,1-2.42,4.33c-0.48.83-.84,1.71-1.37,2.46a41.772,41.772,0,0,1-4.56,5.4c-0.17.15-.29,0.39-0.45,0.54a41.4,41.4,0,0,1-28.56,11.65c-0.17,0-.32.07-0.5,0.07h0a41.558,41.558,0,0,1-29.06-11.72l-97.54-95.12h-380.2c-22.7,0-41.1-17.95-41.1-40.09V1179.08c0-22.14,18.4-40.08,41.1-40.08H9100.9c22.7,0,41.1,17.94,41.1,40.08v400.75C9142,1601.97,9123.6,1619.92,9100.9,1619.92Zm-225.17,53.24,86.65,84.48,0.1-.11a82.8,82.8,0,0,0,56.87,22.44v26.73c0,22.13-18.4,40.08-41.1,40.08H8543.26l-111.24,108.47a41.446,41.446,0,0,1-29.05,11.74h0c-0.18,0-.35-0.03-0.52-0.03a41.357,41.357,0,0,1-28.54-11.71,3.391,3.391,0,0,1-.45-0.53,36.8,36.8,0,0,1-4.57-5.39c-0.53-.77-0.89-1.66-1.38-2.45a37.524,37.524,0,0,1-2.4-4.35,21.589,21.589,0,0,1-.72-2.28,38.624,38.624,0,0,1-1.7-5.27,40.745,40.745,0,0,1-.82-8.04h0v-80.16h-54.85c-22.67-.03-41.03-17.96-41.03-40.08V1352.53h0c0-22.13,18.4-40.09,41.09-40.09h123.27v280.52c0,44.28,36.79,80.2,82.18,80.2h363.2Z" transform="translate(-8266 -1139)"/> </svg> 