<svg xmlns="http://www.w3.org/2000/svg" width="54" height="50" viewBox="0 0 54 50">
  <metadata><?xpacket begin="﻿" id="W5M0MpCehiHzreSzNTczkc9d"?>
<x:xmpmeta xmlns:x="adobe:ns:meta/" x:xmptk="Adobe XMP Core 5.6-c142 79.160924, 2017/07/13-01:06:39        ">
   <rdf:RDF xmlns:rdf="http://www.w3.org/1999/02/22-rdf-syntax-ns#">
      <rdf:Description rdf:about=""/>
   </rdf:RDF>
</x:xmpmeta>
                                                                                                    
                                                                                                    
                                                                                                    
                                                                                                    
                                                                                                    
                                                                                                    
                                                                                                    
                                                                                                    
                                                                                                    
                                                                                                    
                                                                                                    
                                                                                                    
                                                                                                    
                                                                                                    
                                                                                                    
                                                                                                    
                                                                                                    
                                                                                                    
                                                                                                    
                                                                                                    
                           
<?xpacket end="w"?></metadata>
<defs>
    <style>
      .cls-1 {
        fill: #555;
        fill-rule: evenodd;
      }
    </style>
  </defs>
  <path id="robot" class="cls-1" d="M1133,750h-2a1,1,0,0,1-1-1V735a1,1,0,0,1,1-1h2a1,1,0,0,1,1,1v14A1,1,0,0,1,1133,750Zm-9,8h-6v6l-7.5-6H1090a2,2,0,0,1-2-2V728a2,2,0,0,1,2-2h15v-4.555a4,4,0,1,1,4,0V726h15a2,2,0,0,1,2,2v28A2,2,0,0,1,1124,758Zm-2-27a1,1,0,0,0-1-1h-28a1,1,0,0,0-1,1v22a1,1,0,0,0,1,1h28a1,1,0,0,0,1-1V731Zm-7,11h-2a1,1,0,0,1-1-1v-2a1,1,0,0,1,1-1h2a1,1,0,0,1,1,1v2A1,1,0,0,1,1115,742Zm-14,0h-2a1,1,0,0,1-1-1v-2a1,1,0,0,1,1-1h2a1,1,0,0,1,1,1v2A1,1,0,0,1,1101,742Zm-18,8h-2a1,1,0,0,1-1-1V735a1,1,0,0,1,1-1h2a1,1,0,0,1,1,1v14A1,1,0,0,1,1083,750Z" transform="translate(-1080 -714)"/>
</svg>
