<svg xmlns="http://www.w3.org/2000/svg" width="1em" height="1em" viewBox="0 0 805 810"> <path id="圆角矩形_13" data-name="圆角矩形 13" d="M13592.4,6506.43a32.682,32.682,0,0,1-46.2,0l-192.3-192.37A340.818,340.818,0,0,1,13139,6390c-188.9,0-342-153.12-342-342s153.1-342,342-342,342,153.12,342,342a340.611,340.611,0,0,1-80.5,220.34l191.9,191.89A32.592,32.592,0,0,1,13592.4,6506.43ZM13139,5772c-152.4,0-276,123.57-276,276s123.6,276,276,276,276-123.57,276-276S13291.4,5772,13139,5772Z" transform="translate(-12797 -5706)"/> </svg> 