<svg xmlns="http://www.w3.org/2000/svg" width="1em" height="1em" viewBox="0 0 822 822">
  <path d="M11337.4,4544.77h-37.9c-17.4,0-35.9-13.6-41-30.21l-21.8-52.94c-8.2-15.32-4.9-37.91,7.4-50.22l26.9-26.87a31.772,31.772,0,0,0,0-44.77l-44.8-44.7a31.705,31.705,0,0,0-44.7,0l-26.9,26.89c-12.3,12.29-34.9,15.65-50.3,7.43l-52.8-21.78c-16.6-5.13-30.3-23.6-30.3-41v-37.95a31.719,31.719,0,0,0-31.6-31.63h-63.2a31.8,31.8,0,0,0-31.7,31.63v37.95c0,17.4-13.5,35.87-30.1,41l-53,21.78c-15.3,8.22-37.9,4.89-50.1-7.43l-27-26.89a31.705,31.705,0,0,0-44.7,0l-44.7,44.7a31.723,31.723,0,0,0,0,44.73l26.8,26.91c12.4,12.31,15.7,34.9,7.5,50.22l-21.8,52.98c-5.2,16.6-23.6,30.2-41,30.2l-38-.03a31.678,31.678,0,0,0-31.6,31.62v63.21a31.712,31.712,0,0,0,31.6,31.66h38c17.4,0.03,35.8,13.63,40.9,30.2l21.9,52.95c8.1,15.35,4.8,38.01-7.5,50.25l-26.9,26.87a31.957,31.957,0,0,0,0,44.77l44.8,44.74a31.723,31.723,0,0,0,44.7,0l26.9-26.93c12.3-12.26,34.8-15.62,50.1-7.32l53.1,21.77c16.6,5.17,30.1,23.59,30.1,41v37.84a31.787,31.787,0,0,0,31.7,31.61h63.2a31.7,31.7,0,0,0,31.6-31.61v-37.84c0-17.41,13.7-35.83,30.3-41l52.9-21.77c15.4-8.3,38-4.94,50.3,7.32l26.8,26.93a31.723,31.723,0,0,0,44.7,0l44.8-44.74a31.772,31.772,0,0,0,0-44.77l-26.9-26.87c-12.3-12.24-15.6-34.9-7.4-50.25l21.8-52.95c5.1-16.57,23.6-30.17,41-30.17h37.9a31.678,31.678,0,0,0,31.6-31.62v-63.28a31.678,31.678,0,0,0-31.6-31.62m-221.2,63.19a158.1,158.1,0,1,1-158.1-158.06,158.059,158.059,0,0,1,158.1,158.06" transform="translate(-10547 -4197)"/>
</svg>
