<svg xmlns="http://www.w3.org/2000/svg" width="1em" height="1em" viewBox="0 0 54 54"> <path id="share-alt" d="M1125,595a8.982,8.982,0,0,1-6.83-3.148L1103.5,600.6a11.905,11.905,0,0,1,.5,3.4,12.2,12.2,0,0,1-.49,3.386l14.57,9.313A8,8,0,1,1,1115,623a8.063,8.063,0,0,1,.14-1.484l-14.55-9.15a12,12,0,1,1-.01-16.751l15.45-9.023c-0.01-.2-0.03-0.392-0.03-0.592A9,9,0,1,1,1125,595Zm-2,31a3,3,0,1,0-3-3A3,3,0,0,0,1123,626Zm-31-29a7,7,0,1,0,7,7A7,7,0,0,0,1092,597Zm33-15a4,4,0,1,0,4,4A4,4,0,0,0,1125,582Z" transform="translate(-1080 -577)"/> </svg> 