<svg xmlns="http://www.w3.org/2000/svg" width="1em" height="864.38" viewBox="0 0 721 864.38"> <path id="客群促销" d="M7796.8,2931.68a115.208,115.208,0,0,1-74.32-27.02,172.8,172.8,0,0,0,27.59-193.4,115.339,115.339,0,0,1,46.73-9.83c63.78,0,115.48,51.55,115.48,115.12S7860.58,2931.68,7796.8,2931.68Zm-201.88.25c-79.64,0-144.2-64.5-144.2-144.06s64.56-144.06,144.2-144.06,144.2,64.5,144.2,144.06S7674.56,2931.93,7594.92,2931.93Zm-127.57-27.26a115.227,115.227,0,0,1-74.31,27.01c-63.78,0-115.48-51.55-115.48-115.13s51.7-115.12,115.48-115.12a115.41,115.41,0,0,1,46.73,9.83A172.835,172.835,0,0,0,7467.35,2904.67Zm-105.01,315.39,86.52,57.62,1.86,14.83v129.24s-38.32,28.81-72.1,28.81c-34.2,0-72.1-28.81-72.1-28.81V3248.87l-57.68-57.62L7220,2989.56s78.36-24.96,144.19-28.42Zm30.7-230.5s115.09-28.81,201.88-28.81c86.25,0,201.88,28.81,201.88,28.81l-28.84,230.5-86.52,57.62v201.69s-43.53,28.81-86.52,28.81c-43.52,0-86.52-28.81-86.52-28.81V3277.68l-86.52-57.62Zm430.84,230.5,1.73-255.77c57.72,8.54,115.39,29.54,115.39,29.54l-22.66,202.99-63.86,52.05v172.88s-38.32,28.81-72.1,28.81c-24.41,0-50.71-14.68-63.76-23.08l18.74-149.8Z" transform="translate(-7220 -2643.81)"/> </svg> 