<svg xmlns="http://www.w3.org/2000/svg" viewBox="0 0 55.344 49.562"> <path d="M352.387,496.055c0.483,0.753,19.926,35.275,25.888,45.881,0.769,1.367.562,3.064-.275,3.064H324.979c-0.656,0-2.52-.368-0.979-3,1.762-3.01,25.183-44.827,25.84-45.971A1.652,1.652,0,0,1,352.387,496.055ZM351,504s15.58,27.346,19.674,34.836c0.528,0.965.385,2.164-.189,2.164H332.08c-0.45,0-1.731-.26-0.672-2.119C332.617,536.756,350.549,504.807,351,504h0Zm-1,9h2a1,1,0,0,1,1,1v13a1,1,0,0,1-1,1h-2a1,1,0,0,1-1-1V514A1,1,0,0,1,350,513Zm1,18a3,3,0,1,1-3,3A3,3,0,0,1,351,531Z" transform="translate(-323.406 -495.438)"/> </svg> 