<svg xmlns="http://www.w3.org/2000/svg" width="55.344" height="49.562" viewBox="0 0 55.344 49.562"> <path id="warning-yellow" d="M379,881H325.979c-0.656,0-2.52-.368-0.979-3,1.762-3.01,25.183-44.827,25.84-45.971a1.652,1.652,0,0,1,2.547.026c0.483,0.753,19.926,35.275,25.888,45.881C380.044,879.3,379.837,881,379,881Zm-26.95-41.09h0Zm19.624,34.926C367.58,867.346,352,840,352,840c-0.451.807-18.383,32.756-19.592,34.881-1.059,1.859.222,2.119,0.672,2.119h38.405C372.059,877,372.2,875.8,371.674,874.836ZM352,873a3,3,0,1,1,3-3A3,3,0,0,1,352,873Zm1-9h-2a1,1,0,0,1-1-1V850a1,1,0,0,1,1-1h2a1,1,0,0,1,1,1v13A1,1,0,0,1,353,864Z" transform="translate(-324.406 -831.438)"/> </svg> 