<svg xmlns="http://www.w3.org/2000/svg" width="1em" height="1em" viewBox="0 0 854.69 854.41"> <path d="M9076.75,6529.64h-315.5a32.128,32.128,0,0,1-32.25-32V6181.61a32.128,32.128,0,0,1,32.25-32h315.5a32.128,32.128,0,0,1,32.25,32v316.03A32.128,32.128,0,0,1,9076.75,6529.64ZM9045,6235.21a21.307,21.307,0,0,0-21.39-21.22H8814.38a21.3,21.3,0,0,0-21.38,21.22v209.58a21.3,21.3,0,0,0,21.38,21.22h209.23a21.307,21.307,0,0,0,21.39-21.22V6235.21Zm-152.62-208.28a15.976,15.976,0,0,1-22.61,0l-28.26-28.29h0l-90.44-90.51a15.988,15.988,0,0,1,0-22.62l28.11-28.13a15.976,15.976,0,0,1,22.61,0l79.13,79.19,142.89-142.99a15.976,15.976,0,0,1,22.61,0l28.26,28.29a16.006,16.006,0,0,1,0,22.62Zm-245.63,502.71h-315.5a32.128,32.128,0,0,1-32.25-32V6181.61a32.128,32.128,0,0,1,32.25-32h315.5a32.128,32.128,0,0,1,32.25,32v316.03A32.128,32.128,0,0,1,8646.75,6529.64ZM8615,6235.21a21.307,21.307,0,0,0-21.39-21.22H8384.38a21.3,21.3,0,0,0-21.38,21.22v209.58a21.3,21.3,0,0,0,21.38,21.22h209.23a21.307,21.307,0,0,0,21.39-21.22V6235.21Zm31.75-126.57h-315.5a32.128,32.128,0,0,1-32.25-32V5760.61a32.128,32.128,0,0,1,32.25-32h315.5a32.128,32.128,0,0,1,32.25,32v316.03A32.128,32.128,0,0,1,8646.75,6108.64ZM8615,5814.21a21.307,21.307,0,0,0-21.39-21.22H8384.38a21.3,21.3,0,0,0-21.38,21.22v209.58a21.3,21.3,0,0,0,21.38,21.22h209.23a21.307,21.307,0,0,0,21.39-21.22V5814.21Z" transform="translate(-8299 -5728.63)"/> </svg> 