<svg xmlns="http://www.w3.org/2000/svg" width="1em" height="1em" viewBox="0 0 54 54"> <path id="wrong-solid" d="M855,883a27,27,0,1,1,27-27A27,27,0,0,1,855,883Zm8.7-33.669a1.109,1.109,0,0,0,0-1.511l-1.436-1.512a0.981,0.981,0,0,0-1.436,0l-5.846,6.533-5.835-6.564a0.97,0.97,0,0,0-1.428,0l-1.428,1.514a1.115,1.115,0,0,0,0,1.514l5.907,6.646-6.009,6.715a1.107,1.107,0,0,0,0,1.511l1.435,1.511a0.981,0.981,0,0,0,1.436,0l5.917-6.611,5.877,6.611a0.971,0.971,0,0,0,1.429,0l1.428-1.514a1.117,1.117,0,0,0,0-1.514l-5.951-6.693Z" transform="translate(-828 -829)"/> </svg> 