<svg version="1.1" xmlns="http://www.w3.org/2000/svg" xmlns:xlink="http://www.w3.org/1999/xlink" x="0px" y="0px"
                    viewBox="0 0 359.1 134.5" style="enable-background:new 0 0 359.1 134.5;" xml:space="preserve">
    <path d="M61.6,103.1H51c-1.1,0-2-0.9-2-2V29.6c0-1.1,0.9-2,2-2h10.6c1.1,0,2,0.9,2,2v71.4
        C63.6,102.2,62.8,103.1,61.6,103.1z"/>
    <g>
        <path d="M90.7,27.6H69.3c-0.6,0-1.1,0.5-1.1,1.1v12.4c0,0.6,0.5,1.1,1.1,1.1l21.1,0c4.3,0,8.1,3.3,8.2,7.6
            c0.1,4.5-3.4,8.1-7.9,8.1H69.3c-0.6,0-1.1,0.5-1.1,1.1v12.4c0,0.6,0.5,1.1,1.1,1.1h21.4c12.4,0,22.5-10.1,22.5-22.5v0
            C113.2,37.7,103.1,27.6,90.7,27.6z"/>
        <path d="M90.7,58H69.3c-0.6,0-1.1,0.5-1.1,1.1v12.4c0,0.6,0.5,1.1,1.1,1.1l21.1,0c4.3,0,8.1,3.3,8.2,7.6
            c0.1,4.5-3.4,8.1-7.9,8.1H69.3c-0.6,0-1.1,0.5-1.1,1.1v12.4c0,0.6,0.5,1.1,1.1,1.1h21.4c12.4,0,22.5-10.1,22.5-22.5v0
            C113.2,68.1,103.1,58,90.7,58z"/>
    </g>
    <path d="M141.3,83.3v-8.4V28.7c0-0.6-0.5-1.1-1.1-1.1h-12.7c-0.6,0-1.1,0.5-1.1,1.1l-0.2,73.3c0,0.6,0.5,1.1,1.1,1.1h13
        c0.6,0,1.1-0.5,1.1-1.1V83.3z"/>
    <path d="M201.6,27.6h-12.7c-0.6,0-1.1,0.5-1.1,1.1v51c0,1.1-1.4,1.5-2,0.6l-20.2-29c-0.4-0.6-1.4-0.6-1.8,0L146,76.5
        c-0.1,0.2-0.2,0.4-0.2,0.6v22.4c0,1.1,1.4,1.5,2,0.7l15.7-21.6c0.4-0.6,1.4-0.6,1.8,0l17.6,24.1c0.2,0.3,0.6,0.5,0.9,0.5h17.9
        c0.6,0,1.1-0.5,1.1-1.1l-0.2-73.3C202.7,28.1,202.2,27.6,201.6,27.6z"/>
    <circle cx="37.2" cy="32.7" r="5.1"/>
    <g>
        <g>
            <path d="M215.9,48.6c0-0.3,0.3-0.6,0.6-0.6h9.1c1.9,0,3.3,0.1,4.3,0.2c0.9,0.2,1.8,0.5,2.5,1c0.7,0.5,1.4,1.1,1.9,2
                c0.5,0.8,0.7,1.7,0.7,2.7c0,1.1-0.3,2.1-0.9,3c-0.4,0.6-0.9,1.1-1.4,1.5c-0.4,0.3-0.3,0.8,0.1,1c0.9,0.4,1.7,1,2.2,1.7
                c0.8,1,1.2,2.2,1.2,3.5c0,1.1-0.3,2.1-0.8,3.1c-0.5,1-1.2,1.8-2.1,2.4c-0.9,0.6-2,1-3.3,1.1c-0.8,0.1-2.8,0.1-5.9,0.2h-7.6
                c-0.3,0-0.6-0.3-0.6-0.6V48.6z M220.8,52.5v4.2c0,0.3,0.3,0.6,0.6,0.6h2.6c1.9,0,3.1,0,3.5-0.1c0.8-0.1,1.5-0.4,2-0.8
                c0.5-0.5,0.7-1.1,0.7-1.8c0-0.7-0.2-1.3-0.6-1.8c-0.4-0.5-1-0.7-1.8-0.8c-0.5-0.1-1.9-0.1-4.2-0.1h-2.2
                C221,51.9,220.8,52.1,220.8,52.5z M220.8,61.8v5.1c0,0.3,0.3,0.6,0.6,0.6h3.9c1.8,0,2.9,0,3.3-0.1c0.7-0.1,1.3-0.4,1.8-0.9
                c0.5-0.5,0.7-1.2,0.7-2c0-0.7-0.2-1.3-0.5-1.8c-0.4-0.5-0.9-0.8-1.5-1.1c-0.7-0.2-2.1-0.3-4.3-0.3h-3.3
                C221,61.2,220.8,61.4,220.8,61.8z"/>
            <path d="M244.7,71.4h-3.3c-0.3,0-0.6-0.3-0.6-0.6V55c0-0.3,0.3-0.6,0.6-0.6h3c0.3,0,0.6,0.3,0.6,0.6l0,0
                c0,0.5,0.7,0.8,1,0.4c0.3-0.4,0.6-0.6,0.9-0.8c0.6-0.4,1.2-0.5,1.9-0.5c0.9,0,1.7,0.2,2.5,0.6c0.3,0.1,0.4,0.4,0.3,0.7l-1,2.8
                c-0.1,0.3-0.5,0.5-0.8,0.3c-0.5-0.3-1.1-0.4-1.5-0.4c-0.6,0-1.2,0.2-1.6,0.5c-0.4,0.3-0.8,1-1,1.9c-0.2,0.9-0.4,2.8-0.4,5.7v4.6
                C245.3,71.1,245.1,71.4,244.7,71.4z"/>
            <path d="M256.6,59.1l-2.9-0.5c-0.4-0.1-0.6-0.4-0.5-0.8c0.5-1.3,1.2-2.3,2.1-3c1.1-0.8,2.8-1.2,5-1.2
                c2,0,3.5,0.2,4.5,0.7c1,0.5,1.7,1.1,2.1,1.8c0.4,0.7,0.6,2.1,0.6,4l0,5.2c0,1.5,0.1,2.6,0.2,3.3c0.1,0.5,0.2,1,0.5,1.5
                c0.2,0.4-0.1,0.8-0.5,0.8h-3.1c-0.3,0-0.5-0.2-0.6-0.4c-0.1-0.3-0.2-0.6-0.3-0.9c-0.1-0.3-0.1-0.4-0.2-0.5
                c-0.8,0.7-1.6,1.3-2.5,1.7c-0.9,0.4-1.8,0.6-2.8,0.6c-1.7,0-3.1-0.5-4.1-1.4c-1-0.9-1.5-2.1-1.5-3.6c0-1,0.2-1.8,0.7-2.6
                c0.5-0.7,1.1-1.3,1.9-1.7c0.8-0.4,2-0.7,3.6-1c1.8-0.3,3.1-0.7,4-0.9c0.2-0.1,0.4-0.3,0.4-0.6v0c0-0.9-0.2-1.5-0.6-1.8
                c-0.4-0.4-1.2-0.5-2.4-0.5c-0.8,0-1.4,0.2-1.9,0.5c-0.4,0.3-0.7,0.7-0.9,1.2C257.1,59,256.9,59.2,256.6,59.1z M263.1,63.6
                c0-0.4-0.4-0.7-0.7-0.6c-0.5,0.1-1.2,0.3-2,0.5c-1.2,0.3-2.1,0.5-2.4,0.8c-0.6,0.4-0.9,0.9-0.9,1.6c0,0.6,0.2,1.2,0.7,1.6
                c0.5,0.5,1.1,0.7,1.8,0.7c0.8,0,1.6-0.3,2.3-0.8c0.5-0.4,0.9-0.9,1.1-1.5c0.1-0.4,0.2-1.1,0.2-2.2V63.6z"/>
            <path d="M286.7,71.4h-3.3c-0.3,0-0.6-0.3-0.6-0.6v-8c0-1.8-0.1-3-0.3-3.5c-0.2-0.5-0.5-1-0.9-1.3
                c-0.4-0.3-0.9-0.4-1.6-0.4c-0.8,0-1.5,0.2-2.1,0.6c-0.6,0.4-1,1-1.3,1.7c-0.2,0.7-0.3,2-0.3,3.9v7.1c0,0.3-0.3,0.6-0.6,0.6h-3.3
                c-0.3,0-0.6-0.3-0.6-0.6V55c0-0.3,0.3-0.6,0.6-0.6h3c0.3,0,0.6,0.3,0.6,0.6v0.4c0,0.5,0.6,0.8,1,0.4c1.3-1.2,2.8-1.8,4.6-1.8
                c1,0,1.9,0.2,2.7,0.5c0.8,0.4,1.4,0.8,1.9,1.4c0.4,0.6,0.7,1.2,0.9,1.9c0.2,0.7,0.2,1.7,0.2,3v9.9C287.3,71.1,287,71.4,286.7,71.4
                z"/>
            <path d="M306.8,71h-3c-0.3,0-0.6-0.3-0.6-0.6V70c0-0.5-0.6-0.8-1-0.4c-0.4,0.4-0.9,0.8-1.5,1
                c-0.9,0.5-1.9,0.7-2.8,0.7c-1.9,0-3.6-0.8-5-2.4c-1.4-1.6-2.1-3.8-2.1-6.6c0-2.9,0.7-5,2-6.5c1.3-1.5,3.1-2.2,5.1-2.2
                c1.5,0,2.8,0.5,3.9,1.4c0.4,0.3,1,0,1-0.5v-6.4c0-0.3,0.3-0.6,0.6-0.6h3.3c0.3,0,0.6,0.3,0.6,0.6v22.2
                C307.3,70.7,307.1,71,306.8,71z M295.4,62.1c0,1.8,0.2,3.1,0.7,3.9c0.7,1.2,1.7,1.8,3,1.8c1,0,1.9-0.4,2.6-1.3
                c0.7-0.9,1.1-2.2,1.1-3.9c0-1.9-0.4-3.3-1.1-4.2c-0.7-0.9-1.6-1.3-2.7-1.3c-1.1,0-2,0.4-2.7,1.3C295.8,59.2,295.4,60.5,295.4,62.1
                z"/>
        </g>
        <g>
            <g>
                <path d="M236.1,102.5l-0.1-22.3c0-0.3-0.2-0.6-0.5-0.6h-3c-0.3,0-0.5,0.2-0.5,0.6v15.3c0,0.5-0.6,0.8-0.9,0.3
                    l-4.8-7.6c-0.2-0.3-0.6-0.3-0.8,0l-4.8,7.6c-0.3,0.4-0.9,0.2-0.9-0.3V80.2c0-0.3-0.2-0.6-0.5-0.6h-3c-0.3,0-0.5,0.2-0.5,0.6
                    l-0.1,22.3c0,0.3,0.2,0.6,0.5,0.6h4.4c0.2,0,0.3-0.1,0.4-0.2l4.4-6.7c0.2-0.3,0.6-0.3,0.8,0l4.4,6.7c0.1,0.1,0.2,0.2,0.4,0.2h4.4
                    C235.9,103.1,236.1,102.8,236.1,102.5z"/>
            </g>
            <g>
                <path d="M240.8,83.2v-2.8c0-0.4,0.3-0.7,0.7-0.7h3.1c0.4,0,0.7,0.3,0.7,0.7v2.8c0,0.4-0.3,0.7-0.7,0.7h-3.1
                    C241.1,83.9,240.8,83.6,240.8,83.2z M240.8,102.4V86.8c0-0.4,0.3-0.7,0.7-0.7h3.1c0.4,0,0.7,0.3,0.7,0.7v15.6
                    c0,0.4-0.3,0.7-0.7,0.7h-3.1C241.1,103.1,240.8,102.8,240.8,102.4z"/>
                <path d="M249.1,97.8l3.1-0.5c0.3,0,0.6,0.1,0.7,0.5c0.2,0.6,0.6,1.1,1,1.4c0.6,0.5,1.4,0.7,2.5,0.7
                    c1.2,0,2-0.2,2.6-0.6c0.4-0.3,0.6-0.7,0.6-1.2c0-0.3-0.1-0.6-0.3-0.8c-0.2-0.2-0.7-0.4-1.5-0.6c-3.6-0.8-5.9-1.5-6.9-2.2
                    c-1.3-0.9-2-2.2-2-3.8c0-1.5,0.6-2.7,1.7-3.7c1.2-1,3-1.5,5.4-1.5c2.3,0,4,0.4,5.2,1.1c0.9,0.6,1.6,1.5,2.1,2.6
                    c0.2,0.4-0.1,0.8-0.5,0.9l-2.9,0.5c-0.3,0.1-0.6-0.1-0.7-0.4c-0.2-0.4-0.5-0.8-0.9-1c-0.5-0.4-1.2-0.5-2.2-0.5
                    c-1.2,0-2,0.2-2.5,0.5c-0.3,0.2-0.5,0.5-0.5,0.9c0,0.3,0.1,0.6,0.4,0.8c0.4,0.3,1.8,0.7,4.2,1.3c2.4,0.5,4,1.2,5,2
                    c0.9,0.8,1.4,1.9,1.4,3.3c0,1.6-0.6,2.9-1.9,4c-1.3,1.1-3.2,1.7-5.8,1.7c-2.3,0-4.1-0.5-5.5-1.4c-1.1-0.8-1.9-1.8-2.4-3
                    C248.4,98.3,248.6,97.8,249.1,97.8z"/>
                <path d="M282.9,102.7H280c-0.4,0-0.7-0.3-0.7-0.7V102c0-0.6-0.7-0.9-1.1-0.5c-0.4,0.4-0.9,0.7-1.3,0.9
                    c-0.9,0.5-1.9,0.7-2.8,0.7c-1.9,0-3.6-0.8-5-2.4c-1.4-1.6-2.1-3.8-2.1-6.6c0-2.9,0.7-5,2-6.5c1.3-1.5,3.1-2.2,5.1-2.2
                    c1.4,0,2.7,0.4,3.8,1.3c0.4,0.3,1.1,0,1.1-0.5V80c0-0.4,0.3-0.7,0.7-0.7h3.1c0.4,0,0.7,0.3,0.7,0.7v22
                    C283.5,102.4,283.2,102.7,282.9,102.7z M271.6,93.9c0,1.8,0.2,3.1,0.7,3.9c0.7,1.2,1.7,1.8,3,1.8c1,0,1.9-0.4,2.6-1.3
                    c0.7-0.9,1.1-2.2,1.1-3.9c0-1.9-0.4-3.3-1.1-4.2s-1.6-1.3-2.7-1.3c-1.1,0-2,0.4-2.7,1.3C271.9,90.9,271.6,92.2,271.6,93.9z"/>
                <path d="M286.9,94c0-1.5,0.4-2.9,1.1-4.3c0.7-1.4,1.8-2.5,3.1-3.2c1.3-0.7,2.8-1.1,4.5-1.1c2.6,0,4.7,0.8,6.3,2.5
                    c1.6,1.7,2.5,3.8,2.5,6.3c0,2.6-0.8,4.7-2.5,6.4c-1.7,1.7-3.7,2.5-6.2,2.5c-1.6,0-3-0.4-4.4-1.1c-1.4-0.7-2.5-1.7-3.2-3.1
                    C287.3,97.6,286.9,95.9,286.9,94z M291.5,94.2c0,1.7,0.4,3,1.2,3.9c0.8,0.9,1.8,1.3,2.9,1.3c1.2,0,2.1-0.4,2.9-1.3
                    c0.8-0.9,1.2-2.2,1.2-3.9c0-1.7-0.4-2.9-1.2-3.8c-0.8-0.9-1.8-1.3-2.9-1.3c-1.2,0-2.2,0.4-2.9,1.3S291.5,92.6,291.5,94.2z"/>
                <path d="M308.2,86.2h2.8c0.4,0,0.7,0.3,0.7,0.7l0,0c0,0.6,0.7,0.9,1.1,0.5c1.2-1,2.6-1.6,4.2-1.6
                    c1.1,0,2,0.2,2.8,0.7c0.6,0.3,1.1,0.8,1.5,1.3c0.2,0.3,0.7,0.4,1,0.1c0.6-0.6,1.2-1.1,1.8-1.4c0.9-0.4,1.8-0.7,2.8-0.7
                    c1.2,0,2.3,0.3,3.2,0.8c0.9,0.5,1.5,1.2,1.9,2.2c0.3,0.7,0.5,1.9,0.5,3.5v10.1c0,0.4-0.3,0.7-0.7,0.7h-3.1
                    c-0.4,0-0.7-0.3-0.7-0.7v-9c0-1.7-0.2-2.8-0.5-3.3c-0.4-0.6-1.1-1-1.9-1c-0.6,0-1.2,0.2-1.8,0.6c-0.6,0.4-1,0.9-1.2,1.7
                    c-0.2,0.7-0.4,1.9-0.4,3.5v7.5c0,0.4-0.3,0.7-0.7,0.7h-3.1c-0.4,0-0.7-0.3-0.7-0.7v-8.6c0-1.6-0.1-2.7-0.2-3.2
                    c-0.2-0.5-0.4-0.8-0.7-1.1c-0.3-0.2-0.8-0.4-1.4-0.4c-0.7,0-1.3,0.2-1.9,0.6c-0.6,0.4-0.9,0.9-1.2,1.6c-0.2,0.7-0.4,1.9-0.4,3.5
                    v7.6c0,0.4-0.3,0.7-0.7,0.7h-3.1c-0.4,0-0.7-0.3-0.7-0.7V86.8C307.5,86.5,307.8,86.2,308.2,86.2z"/>
            </g>
        </g>
        <circle cx="338.3" cy="87.3" r="2"/>
    </g>
    </svg>